<svg width="818" height="283" viewBox="0 0 818 283" fill="none" xmlns="http://www.w3.org/2000/svg">
<circle cx="676.5" cy="141.5" r="136.5" stroke="white" stroke-width="10"/>
<circle cx="676.5" cy="107.5" r="46.5" stroke="white" stroke-width="10"/>
<path d="M709.889 146.481C738.643 171.296 746.018 187.531 753.271 218.062" stroke="white" stroke-width="10" stroke-linecap="round" stroke-linejoin="round"/>
<path d="M644.566 146.604C615.812 171.42 608.436 187.654 601.184 218.185" stroke="white" stroke-width="10" stroke-linecap="round" stroke-linejoin="round"/>
<path d="M85.392 212L74.592 186.224H25.776L14.976 212H0.72L43.344 111.488H57.024L99.648 212H85.392ZM30.96 173.552V174.272H69.408V173.552L50.4 127.616H50.112L30.96 173.552ZM149.798 111.488C158.054 111.488 165.494 112.976 172.118 115.952C178.838 118.832 184.214 122.72 188.246 127.616C196.502 137.504 200.63 148.88 200.63 161.744C200.63 172.016 197.942 181.376 192.566 189.824C186.71 199.136 178.598 205.568 168.23 209.12C162.566 211.04 156.422 212 149.798 212H114.374V111.488H149.798ZM148.214 199.76C160.118 199.76 169.67 196.256 176.87 189.248C184.07 182.24 187.67 173.072 187.67 161.744C187.67 150.416 184.07 141.248 176.87 134.24C169.67 127.232 160.118 123.728 148.214 123.728H127.478V199.76H148.214ZM313.094 111.488H333.542V212H320.438V125.312H320.15L284.726 212H271.19L235.622 125.312H235.478V212H222.374V111.488H242.822L277.814 197.456H278.102L313.094 111.488ZM374.556 111.488V212H361.452V111.488H374.556ZM477.107 111.488H490.211V212H474.083L415.907 129.2H415.619V212H402.515V111.488H418.643L476.675 194.144H477.107V111.488Z" fill="white"/>
</svg>
