<svg width="481" height="647" viewBox="0 0 481 647" fill="none" xmlns="http://www.w3.org/2000/svg">
<g filter="url(#filter0_d)">
<path d="M98.1842 114.652H18.6829C10.9614 116.175 9.02184 119.119 18.6829 135.852L15.5028 160.233C22.0859 168.616 23.1652 172.862 18.6829 179.313C24.3634 188.664 22.3357 191.759 18.7641 197.21L18.6829 197.333C23.0387 207.687 22.7699 211.886 15.5028 215.354C18.1301 223.707 20.4958 227.994 15.5028 239.734C17.8648 244.702 19.6891 247.487 15.5028 252.454C25.7677 261.966 23.4678 266.331 15.5028 273.655C20.0941 281.21 19.8463 283.962 18.6829 288.495L15.3243 312.875L20.6244 344.676L25.9245 398.737L12.1443 408.277L19.5644 437.957C29.0703 467.334 29.2385 482.08 21.6844 505.798L13.2043 537.599C29.5323 545.585 26.3162 560.57 21.6844 586.36C9.14875 606.131 6.08619 615.797 15.5028 627.7L46.0649 633L177.507 624.52L367.25 633L459.65 631.94L470.072 612.86L460.531 598.02C451.336 566.911 452.136 551.227 462.651 525.939C457.474 510.258 455.058 500.559 456.291 472.938C462.927 449.011 464.421 432.732 461.591 396.617L459.65 366.936C455.591 346.012 458.697 339.589 469.19 333.016L459.65 305.455V269.415C459.818 247.475 461.563 235.558 469.19 215.354C465.137 210.007 464.723 206.23 469.19 197.333C456.028 197.651 458.007 192.6 469.19 179.313L454.35 135.852C451.965 126.312 460.809 118.183 459.65 112.002C453.444 105.985 447.816 106.819 454.35 96.6318H428.909L388.629 109.352H303.827H262.487L98.1842 114.652Z" fill="url(#paint0_radial)"/>
<circle cx="100.255" cy="150.345" r="8.48013" fill="#A3621E"/>
<circle cx="379.039" cy="144.515" r="8.48013" fill="#A3621E"/>
<path d="M19.5403 135.322C26.9604 135.322 34.3805 135.322 41.8006 135.322C47.4386 135.322 53.7086 137.564 59.2909 136.323C68.9137 134.185 78.3754 134.262 88.4414 134.262" stroke="#A46520" stroke-linecap="round" stroke-linejoin="round"/>
<path d="M19.5403 166.062C25.5453 168.552 29.3021 171.363 35.9117 171.363C42.2912 171.363 47.4592 168.405 53.6964 168.183C57.6705 168.041 61.6738 168.183 65.651 168.183C69.2274 168.183 78.2058 170.148 69.3611 168.183" stroke="#A46520" stroke-linecap="round" stroke-linejoin="round"/>
<path d="M22.7202 190.443C26.9816 190.443 32.8175 189.453 36.9716 190.56C40.3484 191.461 42.2749 192.563 46.0406 192.563" stroke="#A46520" stroke-linecap="round" stroke-linejoin="round"/>
<path d="M21.6602 210.583C31.9285 210.583 41.9215 209.523 52.3418 209.523C59.095 209.523 64.2607 209.535 70.4798 206.815C83.5284 201.106 101.652 206.507 113.882 210.583" stroke="#A46520" stroke-linecap="round" stroke-linejoin="round"/>
<path d="M17.4202 229.664C22.4471 240.511 38.5689 237.084 48.6318 237.084C56.7663 237.084 64.4666 236.024 72.541 236.024" stroke="#A46520" stroke-linecap="round" stroke-linejoin="round"/>
<path d="M19.5403 248.744C27.6671 248.744 35.7939 248.744 43.9207 248.744" stroke="#A46520" stroke-linecap="round" stroke-linejoin="round"/>
<path d="M23.7803 263.584C34.8908 263.584 46.0014 263.584 57.1119 263.584C65.8371 263.584 76.872 263.18 84.7313 258.814C90.4048 255.662 95.8272 245.564 102.752 245.564C107.168 245.564 111.585 245.564 116.002 245.564" stroke="#A46520" stroke-linecap="round" stroke-linejoin="round"/>
<path d="M19.5403 282.665C24.7127 282.665 29.2383 282.913 34.145 284.549C36.7781 285.427 38.5071 287.801 40.9762 288.789C45.3287 290.53 49.7106 290.085 54.5208 290.085C64.3599 290.085 73.4081 287.965 83.1413 287.965" stroke="#A46520" stroke-linecap="round" stroke-linejoin="round"/>
<path d="M449.907 103.521C440.542 105.02 430.795 106.702 421.287 106.702" stroke="#A46520" stroke-linecap="round" stroke-linejoin="round"/>
<path d="M450.967 133.202C439.594 135.059 426.608 132.999 415.751 136.618C411.996 137.87 407.613 140.94 403.855 141.623C400.68 142.201 396.955 141.682 393.726 141.682" stroke="#A46520" stroke-linecap="round" stroke-linejoin="round"/>
<path d="M458.387 191.503C446.482 191.503 436.542 192.444 425.468 195.213C411.153 198.792 397.389 193.316 384.422 188.087C375.55 184.51 364.091 186.203 354.565 186.203C344.846 186.203 334.242 184.909 324.825 187.263" stroke="#A46520" stroke-linecap="round" stroke-linejoin="round"/>
<path d="M460.508 208.463C454.194 209.637 447.809 209.851 441.486 210.642C438.866 210.969 436.662 212.555 434.007 212.703C428.465 213.011 422.813 213.763 417.047 213.763" stroke="#A46520" stroke-linecap="round" stroke-linejoin="round"/>
<path d="M458.387 259.344C428.815 265.681 396.439 262.524 366.166 262.524" stroke="#A46520" stroke-linecap="round" stroke-linejoin="round"/>
<path d="M458.387 248.744C440.563 248.744 423.275 251.924 405.386 251.924" stroke="#A46520" stroke-linecap="round" stroke-linejoin="round"/>
<path d="M458.387 271.004C446.696 275.458 434.699 274.184 422.347 274.184C417.384 274.184 412.649 278.424 407.271 278.424C401.996 278.424 396.541 277.364 391.606 277.364" stroke="#A46520" stroke-linecap="round" stroke-linejoin="round"/>
<path d="M185.963 167.122C200.003 166.862 213.24 161.822 227.304 161.822C237.743 161.822 249.257 163.435 259.222 160.232C270.862 156.491 281.378 152.282 293.849 152.282C302.168 152.282 311.374 152.772 319.525 154.402" stroke="#A46520" stroke-linecap="round" stroke-linejoin="round"/>
<path d="M143.562 223.303C153.641 223.303 164.777 221.932 174.774 223.539C179.172 224.246 183.165 226.247 187.612 227.013C199.216 229.014 208.219 224.575 219.295 222.243C228.614 220.281 237.536 219.911 247.091 220.123C256.032 220.322 265.037 224.363 273.944 224.363" stroke="#A46520" stroke-linecap="round" stroke-linejoin="round"/>
<path d="M233.664 281.604C248.033 281.604 262.402 281.604 276.771 281.604C284.235 281.604 291.196 282.373 298.56 283.489C303.321 284.21 309.703 286.041 314.343 284.078C324.7 279.696 334.615 271.781 345.554 269.12C351.429 267.691 357.269 269.944 362.986 269.944" stroke="#A46520" stroke-linecap="round" stroke-linejoin="round"/>
<path d="M95.8613 310.225C123.966 310.225 152.388 311.285 180.663 311.285" stroke="#A46520" stroke-linecap="round" stroke-linejoin="round"/>
<path d="M21.6602 354.746C29.92 356.357 37.6448 358.986 46.0994 358.986C51.5176 358.986 56.4107 355.941 61.9408 355.806C66.4494 355.696 70.9746 355.806 75.4855 355.806C92.5242 355.806 109.563 355.806 126.602 355.806" stroke="#A46520" stroke-linecap="round" stroke-linejoin="round"/>
<path d="M19.5403 332.485C31.2725 332.485 43.0878 332.696 54.5208 331.425C58.2646 331.009 61.7277 330.365 65.7099 330.365C69.637 330.365 73.5374 332.485 77.8412 332.485" stroke="#A46520" stroke-linecap="round" stroke-linejoin="round"/>
<path d="M456.267 349.445C451.097 349.445 446.351 349.277 441.427 351.035C437.591 352.405 433.47 351.193 429.531 352.625C421.344 355.603 412.467 354.745 403.914 354.745C397.193 354.745 390.789 356.865 384.186 356.865C377.473 356.865 370.759 356.865 364.046 356.865" stroke="#A46520" stroke-linecap="round" stroke-linejoin="round"/>
<path d="M331.185 385.486C308.737 385.486 284.254 382.84 262.225 387.076C255.13 388.441 247.296 388.868 240.024 388.666C235.49 388.54 231.477 385.486 227.304 385.486C224.124 385.486 220.943 385.486 217.763 385.486" stroke="#A46520" stroke-linecap="round" stroke-linejoin="round"/>
<path d="M461.567 430.007C456.942 430.007 448.395 428.547 444.018 430.537C439.979 432.373 436.818 434.052 432.358 435.071C424.075 436.964 413.925 436.367 405.386 436.367" stroke="#A46520" stroke-linecap="round" stroke-linejoin="round"/>
<path d="M374.646 408.807C359.383 414.732 344.312 419.407 328.005 419.407C321.292 419.407 314.578 419.407 307.865 419.407" stroke="#A46520" stroke-linecap="round" stroke-linejoin="round"/>
<path d="M24.8403 455.447C33.1045 455.447 41.3687 455.447 49.6329 455.447C53.4076 455.447 58.3857 456.43 61.7054 454.387C64.3465 452.762 67.7982 451.207 70.8922 451.207C84.9492 451.207 98.7419 452.267 112.822 452.267" stroke="#A46520" stroke-linecap="round" stroke-linejoin="round"/>
<path d="M25.9004 488.308C38.4833 488.308 50.5495 489.368 63.001 489.368" stroke="#A46520" stroke-linecap="round" stroke-linejoin="round"/>
<path d="M153.102 474.528C165.309 477.064 178.361 477.708 190.851 477.708C197.874 477.708 204.829 475.588 211.992 475.588C220.955 475.588 230.02 475.976 238.964 475.529C248.278 475.063 256.265 470.288 265.464 470.288" stroke="#A46520" stroke-linecap="round" stroke-linejoin="round"/>
<path d="M295.145 514.808C303.075 514.808 311.006 514.808 318.936 514.808C326.054 514.808 331.955 516.928 339.135 516.928C355.04 516.928 370.519 513.748 386.306 513.748" stroke="#A46520" stroke-linecap="round" stroke-linejoin="round"/>
<path d="M408.566 550.849C417.377 550.849 425.1 549.789 434.007 549.789C441.331 549.789 446.966 546.609 454.147 546.609" stroke="#A46520" stroke-linecap="round" stroke-linejoin="round"/>
<path d="M454.147 581.589C435.003 589.06 415.535 587.949 395.375 587.949C384.583 587.949 370.179 587.859 360.277 583.238C358.244 582.29 355.949 583.009 353.917 582.06C351.706 581.028 349.584 579.543 347.085 579.469C343.206 579.355 339.307 579.469 335.425 579.469" stroke="#A46520" stroke-linecap="round" stroke-linejoin="round"/>
<path d="M24.8403 554.029C31.0169 551.064 38.0545 548.729 44.9807 548.729C49.1753 548.729 52.1302 550.369 56.1697 550.907C67.5475 552.424 79.2534 552.083 90.7969 551.909C98.2658 551.795 105.313 549.789 112.822 549.789C117.062 549.789 121.302 549.789 125.542 549.789C131.391 549.789 136.867 550.849 142.502 550.849" stroke="#A46520" stroke-linecap="round" stroke-linejoin="round"/>
<path d="M92.6814 592.189C104.798 592.189 116.707 591.973 128.722 593.308C136.58 594.181 143.788 596.429 151.807 596.429C161.74 596.429 169.982 594.705 179.014 590.599C192.553 584.445 212.617 587.949 227.304 587.949" stroke="#A46520" stroke-linecap="round" stroke-linejoin="round"/>
<path d="M280.304 610.209C289.769 610.209 300.086 608.381 308.513 612.918C315.791 616.837 330.554 615.079 338.37 613.625C353.824 610.75 370.582 612.329 386.306 612.329" stroke="#A46520" stroke-linecap="round" stroke-linejoin="round"/>
<path d="M383.535 141.96L374.168 139.655C371.327 141.248 370.87 142.746 371.765 146.374C375.881 149.861 378.073 149.842 381.946 149.179C384.694 147.258 384.902 145.618 383.535 141.96Z" fill="#EFDA8A" stroke="#53340C"/>
<path d="M385.643 134.456C379.09 134.67 374.288 133.671 364.555 130.729C367.442 137.92 372.695 139.83 383.809 142.215C385.864 140.013 386.651 138.552 385.643 134.456Z" fill="#EFDA8A" stroke="#53340C"/>
<path d="M355.502 122.579C361.874 123.681 364.784 123.505 368.174 121.049C376.523 123.612 379.771 127.401 385.378 134.466C366.213 132.056 356.894 130.279 355.502 122.579Z" fill="#EFDA8A" stroke="#53340C"/>
<path d="M344.075 114.782C351.486 114.715 354.395 113.96 358.287 111.868C364.08 113.288 365.813 115.695 368.419 120.509C364.311 124.112 361.354 123.795 355.747 122.04C351.114 120.722 348.545 119.394 344.075 114.782Z" fill="#EFDA8A" stroke="#53340C"/>
<path d="M351.147 105.238C344.574 107.089 340.869 107.442 334.208 106.131C336.762 111.713 338.858 113.452 343.536 114.537C349.523 114.915 352.887 114.411 358.807 111.584C356.025 107.73 354.328 106.473 351.147 105.238Z" fill="#EFDA8A" stroke="#53340C"/>
<path d="M338.533 94.0377C334.602 95.016 332.165 95.5293 322.948 95.676C326.422 101.647 328.734 103.863 333.649 105.356C340.712 107.621 344.566 106.972 351.421 105.493C347.809 98.8343 345.294 95.8558 338.533 94.0377Z" fill="#EFDA8A" stroke="#53340C"/>
<path d="M330.814 86.1027C326.654 87.9188 323.391 88.6443 315.552 89.3201C316.154 92.415 317.789 93.7094 322.409 95.4305C328.808 95.4367 332.396 95.1953 338.798 94.0276C336.609 90.5865 335.047 88.782 330.814 86.1027Z" fill="#EFDA8A" stroke="#53340C"/>
<path d="M323.958 79.9927C319.79 82.9814 316.726 83.8489 308.117 81.9057C309.35 86.8479 311.068 88.2939 315.542 89.0557C323.706 88.2586 326.475 87.5901 331.088 86.3581C330.151 83.8562 329.088 82.4565 323.958 79.9927Z" fill="#EFDA8A" stroke="#53340C"/>
<path d="M316.003 72.8624C311.213 73.7586 308.217 74.2464 300.702 75.0206C302.335 78.2021 303.71 79.8099 307.333 82.2001C315.368 83.3989 319.22 83.2582 323.693 80.0027C322.287 75.8368 320.877 74.0356 316.003 72.8624Z" fill="#EFDA8A" stroke="#53340C"/>
<path d="M306.411 64.4663C301.753 66.1566 298.476 66.6919 290.57 66.3793C293.355 70.4992 295.486 72.3247 299.908 75.0496C307.22 74.6335 310.606 74.1262 315.738 72.8718C312.854 68.8515 310.971 66.8592 306.411 64.4663Z" fill="#EFDA8A" stroke="#53340C"/>
<path d="M294.336 53.511C288.892 54.8069 285.703 55.3805 279.575 55.9143C282.483 61.8599 284.962 63.9888 290.56 66.1146C298.262 66.4931 301.9 66.2361 306.136 64.2115C302.301 58.8461 299.774 56.4117 294.336 53.511Z" fill="#EFDA8A" stroke="#53340C"/>
<path d="M286.931 46.8904C280.133 47.3218 276.318 47.7509 269.512 49.127C272.939 54.1692 275.126 55.4906 279.32 56.1887C287.09 55.1767 290.076 54.5925 294.071 53.5206C292.282 50.1195 290.784 48.619 286.931 46.8904Z" fill="#EFDA8A" stroke="#53340C"/>
<path d="M279.781 39.9955C276.071 41.9845 273.339 42.8114 264.764 42.6734C264.773 46.3931 266.174 47.618 269.776 49.1174C276.373 47.8374 280.134 47.3696 286.931 46.8905C285.872 43.8913 284.537 42.3442 279.781 39.9955Z" fill="#EFDA8A" stroke="#53340C"/>
<path d="M271.287 32.6199C268.186 34.4211 265.137 35.0629 256.535 35.288C258.101 40.145 260.102 41.4358 264.5 42.6833C271.289 42.9193 274.604 42.3458 279.791 40.2603C277.988 35.8035 276.556 33.7167 271.287 32.6199Z" fill="#EFDA8A" stroke="#53340C"/>
<path d="M264.146 25.9897C259.63 26.9062 255.899 27.1705 248.021 27.3828C250.176 30.7855 252.101 32.5005 256.535 35.2881C265.36 34.6617 269.146 34.1174 271.277 32.3551C269.422 29.1405 267.902 27.7145 264.146 25.9897Z" fill="#EFDA8A" stroke="#53340C"/>
<path d="M251.787 14.5142C247.354 14.9088 243.716 15.3616 235.947 16.4271C239.163 21.8308 241.798 24.1192 247.747 27.1277C254.88 27.1807 258.441 26.9175 264.146 25.9896C260.076 20.4577 257.792 17.3584 251.787 14.5142Z" fill="#EFDA8A" stroke="#53340C"/>
<path d="M94.8685 147.249L104.144 144.599C107.041 146.085 107.554 147.565 106.794 151.224C102.81 154.861 100.618 154.923 96.7237 154.404C93.9065 152.586 93.6372 150.956 94.8685 147.249Z" fill="#EFDA8A" stroke="#53340C"/>
<path d="M92.4832 139.829C99.0392 139.8 103.802 138.623 113.418 135.323C110.8 142.616 105.621 144.72 94.6035 147.514C92.468 145.39 91.6277 143.959 92.4832 139.829Z" fill="#EFDA8A" stroke="#53340C"/>
<path d="M122.163 126.843C115.836 128.18 112.922 128.111 109.443 125.783C101.195 128.654 98.0901 132.561 92.7482 139.829C111.811 136.71 121.057 134.589 122.163 126.843Z" fill="#EFDA8A" stroke="#53340C"/>
<path d="M133.293 118.627C125.885 118.835 122.95 118.188 118.983 116.243C113.247 117.875 111.605 120.346 109.178 125.253C113.417 128.701 116.36 128.274 121.898 126.313C126.48 124.824 128.998 123.401 133.293 118.627Z" fill="#EFDA8A" stroke="#53340C"/>
<path d="M125.873 109.353C132.51 110.959 136.225 111.174 142.833 109.618C140.488 115.29 138.458 117.106 133.823 118.363C127.854 118.963 124.474 118.584 118.453 115.978C121.09 112.024 122.74 110.705 125.873 109.353Z" fill="#EFDA8A" stroke="#53340C"/>
<path d="M138.063 97.6918C142.027 98.5238 144.482 98.9464 153.698 98.7514C150.448 104.848 148.219 107.147 143.363 108.822C136.389 111.347 132.514 110.841 125.608 109.617C128.971 102.829 131.374 99.7592 138.063 97.6918Z" fill="#EFDA8A" stroke="#53340C"/>
<path d="M145.483 89.477C149.707 91.1377 152.994 91.7418 160.853 92.1266C160.367 95.2417 158.78 96.5958 154.228 98.4869C147.834 98.7302 144.239 98.6219 137.798 97.6923C139.858 94.1725 141.352 92.3114 145.483 89.477Z" fill="#EFDA8A" stroke="#53340C"/>
<path d="M152.108 83.1161C156.383 85.9484 159.477 86.7017 168.008 84.4407C166.96 89.4252 165.296 90.9339 160.853 91.861C152.666 91.367 149.874 90.8016 145.218 89.7414C146.062 87.2065 147.072 85.7684 152.108 83.1161Z" fill="#EFDA8A" stroke="#53340C"/>
<path d="M159.793 75.6957C164.613 76.4138 167.624 76.7902 175.163 77.2853C173.649 80.5252 172.334 82.1829 168.803 84.7056C160.818 86.2014 156.963 86.2035 152.373 83.116C153.623 78.9009 154.965 77.0487 159.793 75.6957Z" fill="#EFDA8A" stroke="#53340C"/>
<path d="M169.068 66.9506C173.784 68.4671 177.08 68.8806 184.968 68.2752C182.337 72.4955 180.276 74.3987 175.958 77.2856C168.635 77.1408 165.233 76.7593 160.058 75.696C162.791 71.5715 164.599 69.5108 169.068 66.9506Z" fill="#EFDA8A" stroke="#53340C"/>
<path d="M180.727 55.5551C186.216 56.6484 189.424 57.1034 195.568 57.4097C192.882 63.459 190.484 65.6783 184.968 68.0102C177.286 68.6738 173.641 68.5518 169.332 66.6855C172.966 61.1817 175.401 58.6553 180.727 55.5551Z" fill="#EFDA8A" stroke="#53340C"/>
<path d="M187.882 48.665C194.692 48.8442 198.519 49.1316 205.373 50.2546C202.134 55.4204 199.997 56.8219 195.833 57.6749C188.031 56.9515 185.025 56.4785 180.992 55.5553C182.655 52.0903 184.096 50.5353 187.882 48.665Z" fill="#EFDA8A" stroke="#53340C"/>
<path d="M194.772 41.5097C198.553 43.3598 201.314 44.085 209.878 43.6293C210.007 47.3467 208.652 48.6227 205.108 50.2545C198.468 49.2199 194.692 48.8919 187.882 48.665C188.83 45.6286 190.106 44.0331 194.772 41.5097Z" fill="#EFDA8A" stroke="#53340C"/>
<path d="M202.987 33.8241C206.153 35.5092 209.223 36.0376 217.827 35.9438C216.442 40.8555 214.491 42.2195 210.143 43.6291C203.366 44.1166 200.033 43.6663 194.772 41.7745C196.408 37.2539 197.762 35.1155 202.987 33.8241Z" fill="#EFDA8A" stroke="#53340C"/>
<path d="M209.877 26.934C214.424 27.6825 218.162 27.8084 226.043 27.7286C224.015 31.2088 222.155 32.994 217.828 35.944C208.985 35.6451 205.181 35.2414 202.987 33.5593C204.721 30.2782 206.188 28.7968 209.877 26.934Z" fill="#EFDA8A" stroke="#53340C"/>
<path d="M221.802 15.0087C226.247 15.2387 229.899 15.5564 237.702 16.3333C234.689 21.8524 232.14 24.2369 226.308 27.4638C219.181 27.7812 215.613 27.6501 209.877 26.9342C213.739 21.2553 215.907 18.0734 221.802 15.0087Z" fill="#EFDA8A" stroke="#53340C"/>
<path d="M237.639 16.3359L222.269 15.0109C228.099 6.00004 245.324 5.20507 251.949 14.4808L237.639 16.3359Z" fill="#EFDA8A" stroke="#53340C"/>
<rect x="233.068" y="11.084" width="16.9057" height="2.12003" transform="rotate(60.9437 233.068 11.084)" fill="url(#paint1_linear)"/>
<circle cx="233.399" cy="13.1551" r="7.15511" fill="#949494"/>
</g>
<defs>
<filter id="filter0_d" x="0" y="0" width="480.072" height="647" filterUnits="userSpaceOnUse" color-interpolation-filters="sRGB">
<feFlood flood-opacity="0" result="BackgroundImageFix"/>
<feColorMatrix in="SourceAlpha" type="matrix" values="0 0 0 0 0 0 0 0 0 0 0 0 0 0 0 0 0 0 127 0"/>
<feOffset dy="4"/>
<feGaussianBlur stdDeviation="5"/>
<feColorMatrix type="matrix" values="0 0 0 0 0 0 0 0 0 0 0 0 0 0 0 0 0 0 0.25 0"/>
<feBlend mode="normal" in2="BackgroundImageFix" result="effect1_dropShadow"/>
<feBlend mode="normal" in="SourceGraphic" in2="effect1_dropShadow" result="shape"/>
</filter>
<radialGradient id="paint0_radial" cx="0" cy="0" r="1" gradientUnits="userSpaceOnUse" gradientTransform="translate(240.036 364.816) rotate(131.245) scale(348.921 299.288)">
<stop offset="0.187747" stop-color="#E8BE6A"/>
<stop offset="0.640444" stop-color="#DCA95A"/>
<stop offset="1" stop-color="#CD8843"/>
</radialGradient>
<linearGradient id="paint1_linear" x1="250.199" y1="12.3415" x2="234.55" y2="12.1352" gradientUnits="userSpaceOnUse">
<stop stop-color="#C4C4C4"/>
<stop offset="0.703555" stop-color="#ADADAD"/>
</linearGradient>
</defs>
</svg>
