<svg width="200" height="100" viewBox="0 0 200 100" fill="none" xmlns="http://www.w3.org/2000/svg">
<path d="M155.301 42.7775C188.557 -3.40512 99.5023 -15.4432 120.259 39.4944C122.714 48.2495 103.073 55.6912 113.117 80.2053C123.607 101.655 160.434 101.655 178.513 90.9302C195.699 82.6129 209.314 39.7133 184.093 46.2796C181.191 50.2194 151.506 57.6611 155.301 42.7775Z" fill="#FFDA12"/>
<path d="M122.938 29.2073C120.991 26.642 119.775 25.0671 117.358 21.9844C112.001 23.0788 104.42 21.5158 103.073 23.5165C102.291 28.2998 107.76 35.9924 119.59 35.7735C121.692 33.0418 122.511 31.5871 122.938 29.2073Z" fill="#FB4D06"/>
<ellipse rx="4.2242" ry="6.50834" transform="matrix(0.900128 0.435625 -0.44953 0.893265 129.354 17.8208)" fill="black"/>
<path d="M17.3485 21.9712C11.9912 23.0658 4.4092 21.5025 3.06241 23.5036C2.37515 28.1584 7.34179 35.6562 19.0608 35.7657" stroke="black"/>
<path d="M18.9491 35.7658L20.2503 39.4843C22.7057 48.2409 3.06234 55.6839 13.1072 80.2022C23.5985 101.656 60.4298 101.656 78.5106 90.929C95.6985 82.6103 109.315 39.7032 84.091 46.2706C81.1892 50.2111 51.501 57.6541 55.2957 42.768C69.62 23.3972 62.4769 6.04833 41.8291 3.09298C27.4873 2.05316 18.2237 9.82456 17.2192 21.9195" stroke="black"/>
</svg>
