<svg width="805" height="640" viewBox="0 0 805 640" fill="none" xmlns="http://www.w3.org/2000/svg">
<rect x="325.336" y="586.446" width="100.686" height="52.7269" fill="#743F00"/>
<path d="M0 56.31V550.279C4.19542e-05 621.673 0 639.521 50.2768 639.521H379.087V586.479H74.4097C56.31 586.479 50.2768 575.418 50.2768 550.279V86.4761C51.0039 69.2993 55.7281 62.3471 74.4097 56.31H738.063C758.174 56.31 758.174 75.4152 758.174 86.4761V550.279C758.174 574.412 758.174 586.479 738.063 586.479H388.137V639.521H758.174C813.479 639.521 804.429 591.506 804.429 550.279V56.31C804.429 31.1716 798.396 0 748.119 0H50.2768C5.02768 0 0 26.1439 0 56.31Z" fill="#743F00"/>
<ellipse cx="29.3581" cy="607.495" rx="13.5207" ry="13.4232" fill="#3D3D3D"/>
<ellipse cx="20.5595" cy="558.631" rx="13.5207" ry="13.4232" fill="#3D3D3D"/>
<ellipse cx="20.5595" cy="512.03" rx="13.5207" ry="13.4232" fill="#3D3D3D"/>
<ellipse cx="20.5595" cy="465.429" rx="13.5207" ry="13.4232" fill="#3D3D3D"/>
<ellipse cx="20.5595" cy="418.828" rx="13.5207" ry="13.4232" fill="#3D3D3D"/>
<ellipse cx="20.5595" cy="372.226" rx="13.5207" ry="13.4232" fill="#3D3D3D"/>
<ellipse cx="20.5595" cy="325.625" rx="13.5207" ry="13.4232" fill="#3D3D3D"/>
<ellipse cx="20.5595" cy="279.024" rx="13.5207" ry="13.4232" fill="#3D3D3D"/>
<ellipse cx="20.5595" cy="232.423" rx="13.5207" ry="13.4232" fill="#3D3D3D"/>
<ellipse cx="20.5595" cy="185.821" rx="13.5207" ry="13.4232" fill="#3D3D3D"/>
<ellipse cx="20.5595" cy="139.22" rx="13.5207" ry="13.4232" fill="#3D3D3D"/>
<ellipse cx="20.5595" cy="92.6185" rx="13.5207" ry="13.4232" fill="#3D3D3D"/>
<ellipse cx="775.573" cy="609.003" rx="13.5207" ry="13.4232" fill="#3D3D3D"/>
<ellipse cx="785.881" cy="558.631" rx="13.5207" ry="13.4232" fill="#3D3D3D"/>
<ellipse cx="785.881" cy="512.03" rx="13.5207" ry="13.4232" fill="#3D3D3D"/>
<ellipse cx="785.881" cy="465.429" rx="13.5207" ry="13.4232" fill="#3D3D3D"/>
<ellipse cx="784.758" cy="420.791" rx="13.5207" ry="13.4232" fill="#3D3D3D"/>
<ellipse cx="785.881" cy="372.226" rx="13.5207" ry="13.4232" fill="#3D3D3D"/>
<ellipse cx="785.881" cy="325.625" rx="13.5207" ry="13.4232" fill="#3D3D3D"/>
<ellipse cx="785.881" cy="279.024" rx="13.5207" ry="13.4232" fill="#3D3D3D"/>
<ellipse cx="785.881" cy="232.423" rx="13.5207" ry="13.4232" fill="#3D3D3D"/>
<ellipse cx="785.881" cy="185.821" rx="13.5207" ry="13.4232" fill="#3D3D3D"/>
<ellipse cx="785.881" cy="139.22" rx="13.5207" ry="13.4232" fill="#3D3D3D"/>
<ellipse cx="785.881" cy="92.6185" rx="13.5207" ry="13.4232" fill="#3D3D3D"/>
<ellipse cx="80.7647" cy="23.7298" rx="13.4232" ry="13.5207" transform="rotate(90 80.7647 23.7298)" fill="#3D3D3D"/>
<ellipse cx="127.704" cy="23.7298" rx="13.4232" ry="13.5207" transform="rotate(90 127.704 23.7298)" fill="#3D3D3D"/>
<ellipse cx="174.644" cy="23.7298" rx="13.4232" ry="13.5207" transform="rotate(90 174.644 23.7298)" fill="#3D3D3D"/>
<ellipse cx="221.584" cy="23.7298" rx="13.4232" ry="13.5207" transform="rotate(90 221.584 23.7298)" fill="#3D3D3D"/>
<ellipse cx="268.524" cy="23.7298" rx="13.4232" ry="13.5207" transform="rotate(90 268.524 23.7298)" fill="#3D3D3D"/>
<ellipse cx="315.463" cy="23.7298" rx="13.4232" ry="13.5207" transform="rotate(90 315.463 23.7298)" fill="#3D3D3D"/>
<ellipse cx="362.403" cy="23.7298" rx="13.4232" ry="13.5207" transform="rotate(90 362.403 23.7298)" fill="#3D3D3D"/>
<ellipse cx="409.343" cy="23.7298" rx="13.4232" ry="13.5207" transform="rotate(90 409.343 23.7298)" fill="#3D3D3D"/>
<ellipse cx="456.282" cy="23.7298" rx="13.4232" ry="13.5207" transform="rotate(90 456.282 23.7298)" fill="#3D3D3D"/>
<ellipse cx="503.222" cy="23.7298" rx="13.4232" ry="13.5207" transform="rotate(90 503.222 23.7298)" fill="#3D3D3D"/>
<ellipse cx="550.162" cy="23.7298" rx="13.4232" ry="13.5207" transform="rotate(90 550.162 23.7298)" fill="#3D3D3D"/>
<ellipse cx="597.101" cy="23.7298" rx="13.4232" ry="13.5207" transform="rotate(90 597.101 23.7298)" fill="#3D3D3D"/>
<ellipse cx="644.041" cy="23.7298" rx="13.4232" ry="13.5207" transform="rotate(90 644.041 23.7298)" fill="#3D3D3D"/>
<ellipse cx="690.981" cy="23.7298" rx="13.4232" ry="13.5207" transform="rotate(90 690.981 23.7298)" fill="#3D3D3D"/>
<ellipse cx="737.92" cy="23.7298" rx="13.4232" ry="13.5207" transform="rotate(90 737.92 23.7298)" fill="#3D3D3D"/>
<ellipse cx="781.799" cy="42.7249" rx="13.4232" ry="13.5207" transform="rotate(90 781.799 42.7249)" fill="#3D3D3D"/>
<ellipse cx="33.8248" cy="40.4457" rx="13.4232" ry="13.5207" transform="rotate(90 33.8248 40.4457)" fill="#3D3D3D"/>
<circle cx="35.9479" cy="605.332" r="13.3234" fill="#FF0000" />
<circle cx="26.1434" cy="559.078" r="13.3234" fill="#FEE503"/>
<circle cx="26.1434" cy="512.823" r="13.3234" fill="#1CC637"/>
<circle cx="26.1434" cy="466.568" r="13.3234" fill="#0500FF"/>
<circle cx="26.1434" cy="420.314" r="13.3234" fill="#FF0000"/>
<circle cx="26.1434" cy="374.059" r="13.3234" fill="#FEE503"/>
<circle cx="26.1434" cy="327.804" r="13.3234" fill="#1CC637"/>
<circle cx="26.1434" cy="281.55" r="13.3234" fill="#0500FF"/>
<circle cx="26.1434" cy="235.295" r="13.3234" fill="#FF0000"/>
<circle cx="26.1434" cy="189.041" r="13.3234" fill="#FEE503"/>
<circle cx="26.1434" cy="142.786" r="13.3234" fill="#1CC637"/>
<circle cx="26.1434" cy="96.5314" r="13.3234" fill="#0500FF"/>
<circle cx="772" cy="605.332" r="13.3234" fill="#FF0000"/>
<circle cx="780.296" cy="559.078" r="13.3234" fill="#0500FF"/>
<circle cx="780.296" cy="512.823" r="13.3234" fill="#1CC637"/>
<circle cx="780.296" cy="466.568" r="13.3234" fill="#FEE503"/>
<circle cx="780.296" cy="420.314" r="13.3234" fill="#FF0000"/>
<circle cx="780.296" cy="374.059" r="13.3234" fill="#0500FF"/>
<circle cx="780.296" cy="327.804" r="13.3234" fill="#1CC637"/>
<circle cx="780.296" cy="281.55" r="13.3234" fill="#FEE503"/>
<circle cx="780.296" cy="235.295" r="13.3234" fill="#FF0000"/>
<circle cx="780.296" cy="189.041" r="13.3234" fill="#0500FF"/>
<circle cx="780.296" cy="142.786" r="13.3234" fill="#1CC637"/>
<circle cx="780.296" cy="96.5314" r="13.3234" fill="#FEE503"/>
<circle cx="85.4704" cy="28.1549" r="13.3234" transform="rotate(90 85.4704 28.1549)" fill="#FEE503"/>
<circle cx="131.725" cy="28.1549" r="13.3234" transform="rotate(90 131.725 28.1549)" fill="#1CC637"/>
<circle cx="177.98" cy="28.1549" r="13.3234" transform="rotate(90 177.98 28.1549)" fill="#0500FF"/>
<circle cx="224.234" cy="28.1549" r="13.3234" transform="rotate(90 224.234 28.1549)" fill="#FF0000"/>
<circle cx="270.489" cy="28.1549" r="13.3234" transform="rotate(90 270.489 28.1549)" fill="#FEE503"/>
<circle cx="316.743" cy="28.1549" r="13.3234" transform="rotate(90 316.743 28.1549)" fill="#1CC637"/>
<circle cx="362.998" cy="28.1549" r="13.3234" transform="rotate(90 362.998 28.1549)" fill="#0500FF"/>
<circle cx="409.253" cy="28.1549" r="13.3234" transform="rotate(90 409.253 28.1549)" fill="#FF0000"/>
<circle cx="455.507" cy="28.1549" r="13.3234" transform="rotate(90 455.507 28.1549)" fill="#FEE503"/>
<circle cx="501.762" cy="28.1549" r="13.3234" transform="rotate(90 501.762 28.1549)" fill="#1CC637"/>
<circle cx="548.016" cy="28.1549" r="13.3234" transform="rotate(90 548.016 28.1549)" fill="#0500FF"/>
<circle cx="594.271" cy="28.1549" r="13.3234" transform="rotate(90 594.271 28.1549)" fill="#FF0000"/>
<circle cx="640.526" cy="28.1549" r="13.3234" transform="rotate(90 640.526 28.1549)" fill="#FEE503"/>
<circle cx="686.781" cy="28.1549" r="13.3234" transform="rotate(90 686.781 28.1549)" fill="#1CC637"/>
<circle cx="733.035" cy="28.1549" r="13.3234" transform="rotate(90 733.035 28.1549)" fill="#0500FF"/>
<circle cx="725.258" cy="617.667" r="13.3234" transform="rotate(-92.2805 725.258 617.667)" fill="#3D3D3D"/>
<circle cx="679.004" cy="617.68" r="13.3234" transform="rotate(-92.2805 679.004 617.68)" fill="#3D3D3D"/>
<circle cx="632.75" cy="617.693" r="13.3234" transform="rotate(-92.2805 632.75 617.693)" fill="#3D3D3D"/>
<circle cx="586.495" cy="617.705" r="13.3234" transform="rotate(-92.2805 586.495 617.705)" fill="#3D3D3D"/>
<circle cx="540.241" cy="617.719" r="13.3234" transform="rotate(-92.2805 540.241 617.719)" fill="#3D3D3D"/>
<circle cx="493.986" cy="617.732" r="13.3234" transform="rotate(-92.2805 493.986 617.732)" fill="#3D3D3D"/>
<circle cx="447.731" cy="617.745" r="13.3234" transform="rotate(-92.2805 447.731 617.745)" fill="#3D3D3D"/>
<circle cx="401.476" cy="617.758" r="13.3234" transform="rotate(-92.2805 401.476 617.758)" fill="#3D3D3D"/>
<circle cx="355.222" cy="617.77" r="13.3234" transform="rotate(-92.2805 355.222 617.77)" fill="#3D3D3D"/>
<circle cx="308.967" cy="617.784" r="13.3234" transform="rotate(-92.2805 308.967 617.784)" fill="#3D3D3D"/>
<circle cx="262.713" cy="617.796" r="13.3234" transform="rotate(-92.2805 262.713 617.796)" fill="#3D3D3D"/>
<circle cx="216.458" cy="617.809" r="13.3234" transform="rotate(-92.2805 216.458 617.809)" fill="#3D3D3D"/>
<circle cx="170.203" cy="617.822" r="13.3234" transform="rotate(-92.2805 170.203 617.822)" fill="#3D3D3D"/>
<circle cx="123.949" cy="617.835" r="13.3234" transform="rotate(-92.2805 123.949 617.835)" fill="#3D3D3D"/>
<circle cx="77.6943" cy="617.848" r="13.3234" transform="rotate(-92.2805 77.6943 617.848)" fill="#3D3D3D"/>
<circle cx="725.242" cy="612.532" r="13.3234" transform="rotate(-92.2805 725.242 612.532)" fill="#FEE503"/>
<circle cx="678.987" cy="612.545" r="13.3234" transform="rotate(-92.2805 678.987 612.545)" fill="#1CC637"/>
<circle cx="632.733" cy="612.558" r="13.3234" transform="rotate(-92.2805 632.733 612.558)" fill="#0500FF"/>
<circle cx="586.478" cy="612.571" r="13.3234" transform="rotate(-92.2805 586.478 612.571)" fill="#FF0000"/>
<circle cx="540.224" cy="612.584" r="13.3234" transform="rotate(-92.2805 540.224 612.584)" fill="#FEE503"/>
<circle cx="493.969" cy="612.597" r="13.3234" transform="rotate(-92.2805 493.969 612.597)" fill="#1CC637"/>
<circle cx="447.714" cy="612.61" r="13.3234" transform="rotate(-92.2805 447.714 612.61)" fill="#0500FF"/>
<circle cx="401.46" cy="612.622" r="13.3234" transform="rotate(-92.2805 401.46 612.622)" fill="#FF0000"/>
<circle cx="355.205" cy="612.636" r="13.3234" transform="rotate(-92.2805 355.205 612.636)" fill="#FEE503"/>
<circle cx="308.951" cy="612.648" r="13.3234" transform="rotate(-92.2805 308.951 612.648)" fill="#1CC637"/>
<circle cx="262.696" cy="612.661" r="13.3234" transform="rotate(-92.2805 262.696 612.661)" fill="#0500FF"/>
<circle cx="216.441" cy="612.674" r="13.3234" transform="rotate(-92.2805 216.441 612.674)" fill="#FF0000"/>
<circle cx="170.186" cy="612.687" r="13.3234" transform="rotate(-92.2805 170.186 612.687)" fill="#FEE503"/>
<circle cx="123.932" cy="612.7" r="13.3234" transform="rotate(-92.2805 123.932 612.7)" fill="#1CC637"/>
<circle cx="77.6772" cy="612.713" r="13.3234" transform="rotate(-92.2805 77.6772 612.713)" fill="#0500FF"/>
<circle cx="776.273" cy="47.0089" r="13.3234" transform="rotate(90 776.273 47.0089)" fill="#FF0000"/>
<circle cx="39.2155" cy="44.7462" r="13.3234" transform="rotate(90 39.2155 44.7462)" fill="#FF0000"/>
</svg>
