<svg width="484" height="513" viewBox="0 0 484 513" fill="none" xmlns="http://www.w3.org/2000/svg">
<path d="M58.1772 267.636C-12.3553 336.944 -15.2488 400.721 30.6424 457.32C104.068 527.687 333.525 535.335 436.015 457.32C491.581 415.024 512.5 230.923 416.129 172.794C380.293 180.824 366.186 189.444 341.173 204.918C132.6 214.343 107.81 233.788 58.1772 267.636Z" fill="url(#paint0_radial)"/>
<path d="M353.411 160.557C339.643 295.171 145.37 302.819 113.247 259.988C78.0633 160.557 80.8432 98.7263 194.321 4.52654C266.217 -19.9492 363.893 58.0662 353.411 160.557Z" fill="#FFDF17"/>
<path d="M145.37 113.518C170.611 122.696 252.067 207.213 243.272 212.567C246.331 230.158 174.817 280.639 71.9443 240.101C58.9418 231.306 46.7042 214.479 67.7376 184.267C55.0527 182.14 44.4096 172.794 44.4096 166.675C39.438 120.784 79.5929 111.606 104.068 128.433C122.032 120.221 129.416 116.975 145.37 113.518Z" fill="#FB4D06"/>
<path d="M145.753 161.704C129.606 146.727 117.836 135.699 104.451 128.433L110.187 125.756C127.03 137.441 134.127 145.862 145.753 161.704Z" fill="#C4400A"/>
<path d="M165.257 206.447C127.397 170.117 59.7069 142.199 67.7379 183.885C50.3901 215.598 62.0238 223.532 88.7713 230.922C140.632 243.841 173.304 235.261 232.564 215.625C203.684 217.988 187.748 218.725 165.257 206.447Z" fill="#C4400A"/>
<ellipse cx="129.14" cy="87.6468" rx="8.25592" ry="30.2983" transform="rotate(25.408 129.14 87.6468)" fill="black"/>
<path d="M194.321 109.311C211.17 104.471 220.651 103.378 237.918 117.724" stroke="black" stroke-width="9" stroke-linecap="round"/>
<defs>
<radialGradient id="paint0_radial" cx="0" cy="0" r="1" gradientUnits="userSpaceOnUse" gradientTransform="translate(241.742 256.928) rotate(73.3365) scale(234.724 333.279)">
<stop stop-color="#FEC601"/>
<stop offset="0.516349" stop-color="#FFDF17"/>
</radialGradient>
</defs>
</svg>
