<svg id="Layer_1" data-name="Layer 1" xmlns="http://www.w3.org/2000/svg" width="1500" height="500" viewBox="0 0 1500 500">
  <defs>
    <style>
      .cls-1 {
        fill: #c1272d;
      }

      .cls-2 {
        font-size: 161.77px;
        fill: #f7931e;
        font-family: PeachyKeenJF;
        letter-spacing: -0.04em;
      }

      .cls-3 {
        letter-spacing: -0.09em;
      }
    </style>
  </defs>
  <title>logo</title>
  <path d="M322,163a29,29,0,0,1-27.87-3.76C264.9,137.51,191.36,98.52,131,197c-55.24,90.13,43.55,190.59,126.16,138.45a29.65,29.65,0,0,1,17.59-4.6c14.58.88,43.28,6.2,73.25-1.85,4.3-1.16,7.63-.86,12,0,8.42,1.65,24.82,4.57,42,1,4.22-.88,10.8-2,15-1,17,4,55.35,13.79,86,5,4.19-1.2,14.71-2.75,19-2,9.28,1.61,27.79,4.41,43-1,5.32-1.89,12.52-1.33,18,0a107.22,107.22,0,0,0,55-2c4.73-1.43,10.18-6.23,15-5.2,17,3.61,56.9,11.05,78.83,6.45a29,29,0,0,1,14.33.59c10,3,30,6,56.76-5.15a29,29,0,0,1,17.33-1.49c20.27,4.44,69.16,13.05,100.05.92a29,29,0,0,1,14.7-1.84c15.44,2.19,50.47,5.89,81.29-.06a28.92,28.92,0,0,1,11.61.17c18.84,4.13,79.88,15.14,142.22.82a29.07,29.07,0,0,1,16.36,1,79.12,79.12,0,0,0,50.94,1,29.2,29.2,0,0,1,20.65,1.09c14.21,6.18,41.58,13.3,69.91-5.35,29.9-19.69,31.61-42,30.35-52.69a95.82,95.82,0,0,1-.43-16c1-21-2.23-69-52.92-72.33-23.49-1.57-37.44,2.32-45.41,6.39a29.44,29.44,0,0,1-22.79,1.72c-12.27-4.14-32.82-8.15-60.39-3.36a29.07,29.07,0,0,1-12.72-.63c-17.91-4.94-71.19-17-124.45-2.56a29.23,29.23,0,0,1-16.27-.28c-9.89-3.08-27.3-7.59-43-7.11a28.87,28.87,0,0,1-21.68-8.72c-17.27-17.83-59.95-48.21-125.92-7a28.82,28.82,0,0,1-29.64.48c-17-9.85-46.18-19.74-70.78,7.21A29.15,29.15,0,0,1,700,174.74c-18-6.85-44.8-13.43-66.76-3.47A29.46,29.46,0,0,1,604.47,169c-22.75-15.48-70.75-36-133.48,4.36a29.31,29.31,0,0,1-30.09,1C418.07,161.78,372.06,143.33,322,163Z"/>
  <path class="cls-1" d="M292,198s9-15-28-35-102,12-112,50-6,89,32,104,82-12,82-12,28,15,49,7c0,0,26,9,42-2,0,0,30,10,43-2s10-11,10-11-3,18,10,17,46,4,48-9c0,0-2,5,13,6s37,5,38-3c0,0-3,6,9,6s45,9,46-17c0,0,0,20,11,21s53,10,61-21c0,0,16,34,54,16,0,0-3,7,12,5s32,3,33-5c0,0,2,5,12,4s34,6,36-12-2-39,9-39,35,56,77,51,51-27,51-27,15,31,52,19c0,0,2,3,10,3s33,3,33-7c0,0-2,6,5,7s29,1,29,1,9,1,9-8c0,0,0,7,8,8s43,7,43-6c0,0-2,9,15,9s37,4,37-16h0c.1.1,38,37.95,77-1,0,0,11,19,46,16s42-12,45-23c2.1-7.71-1.69-18.86-6.9-25.53a5,5,0,0,1,1.8-7.52c3.74-1.84,7-5.33,6.1-11.95-2-14-3-52-47-49s-45,21-45,21-42-50-83,5c0,0-14-38-63-15,0,0-21.33-15.52-35.35-2.62a.35.35,0,0,1-.59-.25c0-1.63-.51-4.89-5.06-4.13-5.92,1-33.22,2.94-34,5.87.11-.94.74-6.87-2-6.87H990s-6,0-5,10c0,0-10-24-43-12,0,0-7-40-51-40s-72,34-82,58-10-33-10-33,4-19-16-18-43-1-43,16,2,17-24,18c0,0-14,0-14,5,0,0-20-8-31,1,0,0,6-13-7-12s-43-4-46,13l-.09.51a4.94,4.94,0,0,1-9.59.55L608,207s0-9-35-6c0,0,3-33-27-35s-41,23-25,46c0,0-18-18-52-8,0,0,2-4-3-4s-59.1-3.93-71.7,5.76a.11.11,0,0,1-.17-.12c.45-1.43,1.49-6.64-7.13-6.64H360s5-11-19-9-25,2-25,13C316,203,310,196,292,198Z"/>
  <text class="cls-2" transform="translate(157 304.51) scale(0.95 1)">Carni<tspan class="cls-3" x="419.78" y="0">v</tspan><tspan x="515.38" y="0">al Games</tspan></text>
</svg>
