<svg width="230" height="60" viewBox="0 0 230 60" fill="none" xmlns="http://www.w3.org/2000/svg">
<path d="M30.7794 6.66683C32.1176 12.3131 35.4853 15.3819 47.8543 20.4591L5.39172 20.2213C13.605 15.5564 18.4307 13.0041 20.6693 6.66683H19.5459V5.71564C21.3407 4.20726 22.4773 3.74966 24.7133 3.57546C19.5459 -0.465506 31.0041 -1.41667 26.5107 3.57546C28.8302 3.63122 29.9722 4.23822 31.9027 5.71564V6.66683H30.7794Z" fill="url(#paint0_linear)"/>
<path d="M0 18.0831L4.94273 27.3572H46.5066L51 18.0831C49.581 17.4424 48.7378 17.9887 47.1806 19.9854C44.5488 17.9667 43.0724 17.8803 40.4405 19.9854C38.3579 18.1453 36.8351 18.0122 33.2511 19.9854C30.3557 18.1943 28.7323 17.9368 25.837 19.9854C22.6206 18.1359 20.8898 18.022 17.9736 19.9854C14.917 17.5967 13.3138 17.8946 10.5595 19.9854C8.26367 18.1434 7.04721 16.5863 4.04405 19.9854C1.97472 18.1392 1.03934 17.605 0 18.0831Z" fill="#F900FD"/>
<path d="M4.26892 26.4063L46.9561 26.1685" stroke="#D00303"/>
<path d="M6.86182 49.92V27.123H9.01565V49.92H6.86182Z" fill="url(#paint1_linear)"/>
<path d="M12.6055 49.92V27.123H14.7593V49.92H12.6055Z" fill="url(#paint2_linear)"/>
<path d="M19.0671 49.92V27.123H21.221V49.92H19.0671Z" fill="url(#paint3_linear)"/>
<path d="M29.8361 49.92V27.123H31.9899V49.92H29.8361Z" fill="url(#paint4_linear)"/>
<path d="M36.2979 49.92V27.123H38.4517V49.92H36.2979Z" fill="url(#paint5_linear)"/>
<path d="M42.041 49.92V27.123H44.1949V49.92H42.041Z" fill="url(#paint6_linear)"/>
<ellipse cx="8.08807" cy="22.6001" rx="1.57269" ry="1.66459" fill="#FFE600"/>
<ellipse cx="14.8283" cy="22.6001" rx="1.57269" ry="1.66459" fill="#FFE600"/>
<ellipse cx="22.0179" cy="22.6001" rx="1.57269" ry="1.66459" fill="#FFE600"/>
<ellipse cx="29.6563" cy="22.6001" rx="1.57269" ry="1.66459" fill="#FFE600"/>
<ellipse cx="36.3968" cy="22.6001" rx="1.57269" ry="1.66459" fill="#FFE600"/>
<ellipse cx="43.1365" cy="22.6001" rx="1.57269" ry="1.66459" fill="#FFE600"/>
<path d="M49.6525 22.601C49.2031 23.79 48.499 24.2656 48.0798 24.2656C47.6304 23.79 47.4058 23.5203 47.4058 22.601C47.4058 21.6817 48.5592 20.4608 49.4278 20.9364C49.847 21.412 49.8771 22.1254 49.6525 22.601Z" fill="#FFE600"/>
<path d="M1.2621 22.7065C1.71144 23.8955 2.72618 24.0269 3.14541 24.0269C3.59475 23.5513 3.5088 23.1502 3.5088 22.7065C3.5088 21.7871 2.35534 20.5663 1.48677 21.0419C1.06754 21.5175 1.03743 22.2309 1.2621 22.7065Z" fill="#FFE600"/>
<rect x="4.70776" y="49.9209" width="40.9229" height="6.07919" rx="2" fill="#F900FD"/>
<path d="M4.70776 54.8599L45.6307 54.8599" stroke="#FF0000"/>
<ellipse cx="7.71636" cy="52.3438" rx="1.57269" ry="1.66459" fill="#FFE600"/>
<ellipse cx="14.4568" cy="52.3438" rx="1.57269" ry="1.66459" fill="#FFE600"/>
<ellipse cx="21.6462" cy="52.3438" rx="1.57269" ry="1.66459" fill="#FFE600"/>
<ellipse cx="29.2848" cy="52.3438" rx="1.57269" ry="1.66459" fill="#FFE600"/>
<ellipse cx="36.0251" cy="52.3438" rx="1.57269" ry="1.66459" fill="#FFE600"/>
<ellipse cx="42.7653" cy="52.3438" rx="1.57269" ry="1.66459" fill="#FFE600"/>
<path d="M76.6346 49.1691C77.1464 49.1691 77.4024 49.4845 77.4024 50.1155V50.9917C77.4024 51.6227 77.1464 51.9381 76.6346 51.9381H72.3767C71.8648 51.9381 71.6088 51.6227 71.6088 50.9917V50.1155C71.6088 49.4845 71.8648 49.1691 72.3767 49.1691H72.7722L66.4668 39.9505V49.1691H67.0718C67.5836 49.1691 67.8396 49.4845 67.8396 50.1155V50.9917C67.8396 51.6227 67.5836 51.9381 67.0718 51.9381H63.7678C63.2559 51.9381 63 51.6227 63 50.9917V50.1155C63 49.4845 63.2559 49.1691 63.7678 49.1691H64.3728V30.1711H63.7678C63.2559 30.1711 63 29.8557 63 29.2247V28.3485C63 27.7175 63.2559 27.4021 63.7678 27.4021H67.0718C67.5836 27.4021 67.8396 27.7175 67.8396 28.3485V29.2247C67.8396 29.8557 67.5836 30.1711 67.0718 30.1711H66.4668V38.8289L72.8187 30.1711H72.3534C71.857 30.1711 71.6088 29.8557 71.6088 29.2247V28.3485C71.6088 28.0213 71.6554 27.7876 71.7485 27.6474C71.857 27.4838 72.0277 27.4021 72.2603 27.4021H76.2855C76.7819 27.4021 77.0301 27.7175 77.0301 28.3485V29.2247C77.0301 29.8557 76.7819 30.1711 76.2855 30.1711H75.4014L68.7005 39.1443L75.5875 49.1691H76.6346Z" fill="white"/>
<path d="M89.2926 49.1691C89.789 49.1691 90.0372 49.4845 90.0372 50.1155V50.9917C90.0372 51.6227 89.789 51.9381 89.2926 51.9381H87.4312C87.1986 51.9381 86.9969 51.8213 86.8263 51.5876C86.6712 51.3306 86.5936 51.0151 86.5936 50.6412V48.433C86.2989 49.5313 85.787 50.4543 85.058 51.2021C84.3445 51.9265 83.5844 52.2887 82.7778 52.2887C81.692 52.2887 80.8156 51.8213 80.1486 50.8866C79.4816 49.9285 79.1481 48.6667 79.1481 47.101C79.1481 45.4653 79.5127 44.2034 80.2417 43.3155C80.9862 42.4275 82.041 41.9835 83.406 41.9835C84.4453 41.9835 85.5078 42.1704 86.5936 42.5443V40.967C86.5936 39.5182 86.3687 38.4433 85.9189 37.7423C85.469 37.0412 84.771 36.6907 83.8248 36.6907C83.0958 36.6907 82.5529 36.901 82.1961 37.3216C82.3047 37.6021 82.359 37.9058 82.359 38.233C82.359 38.7704 82.2349 39.2261 81.9867 39.6C81.7385 39.9739 81.4361 40.1608 81.0793 40.1608C80.6605 40.1608 80.327 39.9622 80.0788 39.5649C79.8306 39.1677 79.7065 38.6302 79.7065 37.9526C79.7065 36.8076 80.1021 35.8729 80.8932 35.1485C81.6843 34.4241 82.6925 34.0619 83.9179 34.0619C85.4535 34.0619 86.6246 34.6811 87.4312 35.9196C88.2533 37.1581 88.6644 38.9107 88.6644 41.1773V49.1691H89.2926ZM83.2664 49.7299C83.8559 49.7299 84.3988 49.4962 84.8951 49.0289C85.407 48.5381 85.8103 47.8955 86.105 47.101C86.4152 46.2832 86.5781 45.3952 86.5936 44.4371C85.8956 44.2735 84.9339 44.1918 83.7085 44.1918C82.0333 44.1918 81.1956 45.1265 81.1956 46.9959C81.1956 47.8605 81.3818 48.5381 81.7541 49.0289C82.1263 49.4962 82.6305 49.7299 83.2664 49.7299Z" fill="white"/>
<path d="M98.8741 34.0619C99.4946 34.0619 99.9677 34.2838 100.293 34.7278C100.619 35.1485 100.782 35.7443 100.782 36.5155C100.782 37.123 100.65 37.6371 100.387 38.0577C100.123 38.455 99.7816 38.6536 99.3627 38.6536C98.9905 38.6536 98.6802 38.49 98.4321 38.1629C98.1839 37.8124 98.0443 37.3684 98.0133 36.8309C97.5324 36.901 97.0903 37.2515 96.687 37.8825C96.2837 38.49 95.958 39.2845 95.7098 40.266C95.4771 41.2241 95.3608 42.2522 95.3608 43.3505V49.1691H96.4544C96.9662 49.1691 97.2222 49.4845 97.2222 50.1155V50.9917C97.2222 51.6227 96.9662 51.9381 96.4544 51.9381H92.6618C92.1654 51.9381 91.9173 51.6227 91.9173 50.9917V50.1155C91.9173 49.4845 92.1654 49.1691 92.6618 49.1691H93.2668V37.1814H92.6618C92.1654 37.1814 91.9173 36.866 91.9173 36.2351V35.3588C91.9173 34.7278 92.1654 34.4124 92.6618 34.4124H94.4999C94.7481 34.4124 94.9497 34.5409 95.1049 34.7979C95.2755 35.0316 95.3608 35.3354 95.3608 35.7093V38.7938C95.64 37.345 96.0898 36.2 96.7103 35.3588C97.3463 34.4942 98.0675 34.0619 98.8741 34.0619Z" fill="white"/>
<path d="M114.505 49.1691C115.002 49.1691 115.25 49.4845 115.25 50.1155V50.9917C115.25 51.6227 115.002 51.9381 114.505 51.9381H111.271C110.759 51.9381 110.504 51.6227 110.504 50.9917V50.1155C110.504 49.4845 110.759 49.1691 111.271 49.1691H111.806V42.4041C111.806 40.3244 111.636 38.8756 111.295 38.0577C110.969 37.2165 110.395 36.7959 109.573 36.7959C108.999 36.7959 108.448 37.088 107.921 37.6722C107.409 38.233 106.99 38.9691 106.664 39.8804C106.354 40.7918 106.199 41.7498 106.199 42.7546V49.1691H106.734C107.246 49.1691 107.502 49.4845 107.502 50.1155V50.9917C107.502 51.6227 107.246 51.9381 106.734 51.9381H103.5C103.004 51.9381 102.756 51.6227 102.756 50.9917V50.1155C102.756 49.4845 103.004 49.1691 103.5 49.1691H104.105V37.1814H103.5C103.004 37.1814 102.756 36.866 102.756 36.2351V35.3588C102.756 34.7278 103.004 34.4124 103.5 34.4124H105.338C105.586 34.4124 105.788 34.5409 105.943 34.7979C106.114 35.0316 106.199 35.3354 106.199 35.7093V38.3381C106.525 37.0997 107.052 36.0832 107.781 35.2887C108.526 34.4708 109.294 34.0619 110.085 34.0619C112.629 34.0619 113.901 36.679 113.901 41.9134V49.1691H114.505Z" fill="white"/>
<path d="M119.163 31.1526C118.728 31.1526 118.364 30.9423 118.069 30.5216C117.774 30.0777 117.627 29.5285 117.627 28.8742C117.627 28.1966 117.774 27.6474 118.069 27.2268C118.364 26.7828 118.728 26.5608 119.163 26.5608C119.597 26.5608 119.954 26.7828 120.233 27.2268C120.528 27.6708 120.675 28.2199 120.675 28.8742C120.675 29.5285 120.528 30.0777 120.233 30.5216C119.954 30.9423 119.597 31.1526 119.163 31.1526ZM117.883 51.9381C117.387 51.9381 117.138 51.6227 117.138 50.9917V50.1155C117.138 49.4845 117.387 49.1691 117.883 49.1691H118.488V37.1814H117.883C117.387 37.1814 117.138 36.866 117.138 36.2351V35.3588C117.138 34.7278 117.387 34.4124 117.883 34.4124H119.721C119.969 34.4124 120.171 34.5409 120.326 34.7979C120.497 35.0316 120.582 35.3354 120.582 35.7093V49.1691H121.187C121.699 49.1691 121.955 49.4845 121.955 50.1155V50.9917C121.955 51.6227 121.699 51.9381 121.187 51.9381H117.883Z" fill="white"/>
<path d="M134.985 34.4124C135.481 34.4124 135.729 34.7278 135.729 35.3588V36.2351C135.729 36.866 135.481 37.1814 134.985 37.1814H134.38L130.564 51.2021C130.44 51.6928 130.199 51.9381 129.843 51.9381H129.215C128.889 51.9381 128.648 51.6928 128.493 51.2021L124.701 37.1814H124.096C123.584 37.1814 123.328 36.866 123.328 36.2351V35.3588C123.328 34.7278 123.584 34.4124 124.096 34.4124H127.283C127.78 34.4124 128.028 34.7278 128.028 35.3588V36.2351C128.028 36.866 127.78 37.1814 127.283 37.1814H126.888L129.633 47.5216L132.379 37.1814H131.913C131.402 37.1814 131.146 36.866 131.146 36.2351V35.3588C131.146 34.7278 131.402 34.4124 131.913 34.4124H134.985Z" fill="white"/>
<path d="M147.574 49.1691C148.07 49.1691 148.319 49.4845 148.319 50.1155V50.9917C148.319 51.6227 148.07 51.9381 147.574 51.9381H145.713C145.48 51.9381 145.278 51.8213 145.108 51.5876C144.953 51.3306 144.875 51.0151 144.875 50.6412V48.433C144.58 49.5313 144.069 50.4543 143.339 51.2021C142.626 51.9265 141.866 52.2887 141.059 52.2887C139.974 52.2887 139.097 51.8213 138.43 50.8866C137.763 49.9285 137.43 48.6667 137.43 47.101C137.43 45.4653 137.794 44.2034 138.523 43.3155C139.268 42.4275 140.323 41.9835 141.688 41.9835C142.727 41.9835 143.789 42.1704 144.875 42.5443V40.967C144.875 39.5182 144.65 38.4433 144.2 37.7423C143.751 37.0412 143.053 36.6907 142.106 36.6907C141.377 36.6907 140.834 36.901 140.478 37.3216C140.586 37.6021 140.64 37.9058 140.64 38.233C140.64 38.7704 140.516 39.2261 140.268 39.6C140.02 39.9739 139.718 40.1608 139.361 40.1608C138.942 40.1608 138.608 39.9622 138.36 39.5649C138.112 39.1677 137.988 38.6302 137.988 37.9526C137.988 36.8076 138.384 35.8729 139.175 35.1485C139.966 34.4241 140.974 34.0619 142.199 34.0619C143.735 34.0619 144.906 34.6811 145.713 35.9196C146.535 37.1581 146.946 38.9107 146.946 41.1773V49.1691H147.574ZM141.548 49.7299C142.137 49.7299 142.68 49.4962 143.177 49.0289C143.688 48.5381 144.092 47.8955 144.387 47.101C144.697 46.2832 144.86 45.3952 144.875 44.4371C144.177 44.2735 143.215 44.1918 141.99 44.1918C140.315 44.1918 139.477 45.1265 139.477 46.9959C139.477 47.8605 139.663 48.5381 140.036 49.0289C140.408 49.4962 140.912 49.7299 141.548 49.7299Z" fill="white"/>
<path d="M150.779 51.9381C150.267 51.9381 150.011 51.6227 150.011 50.9917V50.1155C150.011 49.4845 150.267 49.1691 150.779 49.1691H151.384V28.7691H150.779C150.267 28.7691 150.011 28.4536 150.011 27.8227V26.9464C150.011 26.3155 150.267 26 150.779 26H152.617C152.85 26 153.043 26.1285 153.199 26.3856C153.369 26.6192 153.455 26.923 153.455 27.2969V49.1691H154.059C154.571 49.1691 154.827 49.4845 154.827 50.1155V50.9917C154.827 51.6227 154.571 51.9381 154.059 51.9381H150.779Z" fill="white"/>
<path d="M162.279 41.7381C163.737 42.3691 164.768 43.0935 165.373 43.9113C165.978 44.7058 166.281 45.7691 166.281 47.101C166.281 48.1058 166.087 49.0055 165.699 49.8C165.311 50.5711 164.76 51.1787 164.047 51.6227C163.349 52.0667 162.542 52.2887 161.627 52.2887C160.185 52.2887 159.029 51.8797 158.16 51.0619C157.307 50.2206 156.881 49.134 156.881 47.8021C156.881 47.1244 157.005 46.5869 157.253 46.1897C157.501 45.7924 157.835 45.5938 158.253 45.5938C158.61 45.5938 158.905 45.7808 159.138 46.1546C159.386 46.5285 159.51 46.9842 159.51 47.5216C159.51 48.0124 159.409 48.4096 159.207 48.7134C159.58 49.5079 160.378 49.9052 161.604 49.9052C162.441 49.9052 163.077 49.6832 163.512 49.2392C163.962 48.7952 164.186 48.1993 164.186 47.4515C164.186 46.9608 164.117 46.5636 163.977 46.2598C163.837 45.9326 163.589 45.6522 163.233 45.4186C162.891 45.1615 162.364 44.8811 161.65 44.5773C160.487 44.0866 159.58 43.5959 158.928 43.1052C158.292 42.5911 157.835 42.0302 157.555 41.4227C157.276 40.7918 157.137 40.0089 157.137 39.0742C157.137 38.0928 157.33 37.2282 157.718 36.4804C158.106 35.7093 158.641 35.1134 159.324 34.6928C160.022 34.2722 160.813 34.0619 161.697 34.0619C163.077 34.0619 164.155 34.4357 164.931 35.1835C165.707 35.9079 166.094 36.9244 166.094 38.233C166.094 38.9107 165.97 39.4598 165.722 39.8804C165.474 40.2777 165.148 40.4763 164.745 40.4763C164.373 40.4763 164.062 40.2893 163.814 39.9155C163.582 39.5416 163.465 39.0742 163.465 38.5134C163.465 38.0227 163.566 37.6254 163.768 37.3216C163.426 36.7375 162.728 36.4454 161.674 36.4454C160.945 36.4454 160.355 36.679 159.905 37.1464C159.456 37.6137 159.231 38.2213 159.231 38.9691C159.231 39.3663 159.316 39.7052 159.487 39.9856C159.657 40.266 159.952 40.5347 160.371 40.7918C160.805 41.0488 161.441 41.3643 162.279 41.7381Z" fill="white"/>
<path d="M175.629 34.0619C176.575 34.0619 177.397 34.4241 178.095 35.1485C178.793 35.8729 179.336 36.9127 179.724 38.268C180.112 39.6 180.306 41.1656 180.306 42.9649C180.306 45.8625 179.848 48.1409 178.933 49.8C178.018 51.4591 176.769 52.2887 175.187 52.2887C174.551 52.2887 173.938 52.0667 173.349 51.6227C172.759 51.1553 172.255 50.501 171.836 49.6598V57.2309H172.441C172.953 57.2309 173.209 57.5464 173.209 58.1773V59.0536C173.209 59.6845 172.953 60 172.441 60H169.161C168.649 60 168.393 59.6845 168.393 59.0536V58.1773C168.393 57.5464 168.649 57.2309 169.161 57.2309H169.766V37.1814H169.161C168.649 37.1814 168.393 36.866 168.393 36.2351V35.3588C168.393 34.7278 168.649 34.4124 169.161 34.4124H171.022C171.255 34.4124 171.449 34.5409 171.604 34.7979C171.759 35.0316 171.836 35.3354 171.836 35.7093V37.9175C172.116 36.8192 172.612 35.9079 173.326 35.1835C174.055 34.4357 174.822 34.0619 175.629 34.0619ZM174.978 49.5546C176.017 49.5546 176.808 48.9821 177.351 47.8371C177.909 46.6687 178.188 44.9863 178.188 42.7897C178.188 40.8969 177.925 39.4247 177.397 38.3732C176.87 37.3216 176.125 36.7959 175.164 36.7959C174.559 36.7959 174 37.0529 173.488 37.567C172.977 38.0577 172.573 38.7354 172.279 39.6C171.984 40.4646 171.836 41.411 171.836 42.4392V46.9608C172.255 47.8021 172.736 48.4447 173.279 48.8887C173.822 49.3326 174.388 49.5546 174.978 49.5546Z" fill="white"/>
<path d="M184.692 31.1526C184.258 31.1526 183.894 30.9423 183.599 30.5216C183.304 30.0777 183.157 29.5285 183.157 28.8742C183.157 28.1966 183.304 27.6474 183.599 27.2268C183.894 26.7828 184.258 26.5608 184.692 26.5608C185.127 26.5608 185.484 26.7828 185.763 27.2268C186.058 27.6708 186.205 28.2199 186.205 28.8742C186.205 29.5285 186.058 30.0777 185.763 30.5216C185.484 30.9423 185.127 31.1526 184.692 31.1526ZM183.413 51.9381C182.916 51.9381 182.668 51.6227 182.668 50.9917V50.1155C182.668 49.4845 182.916 49.1691 183.413 49.1691H184.018V37.1814H183.413C182.916 37.1814 182.668 36.866 182.668 36.2351V35.3588C182.668 34.7278 182.916 34.4124 183.413 34.4124H185.251C185.499 34.4124 185.701 34.5409 185.856 34.7979C186.026 35.0316 186.112 35.3354 186.112 35.7093V49.1691H186.717C187.229 49.1691 187.485 49.4845 187.485 50.1155V50.9917C187.485 51.6227 187.229 51.9381 186.717 51.9381H183.413Z" fill="white"/>
<path d="M189.951 51.9381C189.439 51.9381 189.183 51.6227 189.183 50.9917V50.1155C189.183 49.4845 189.439 49.1691 189.951 49.1691H190.556V28.7691H189.951C189.439 28.7691 189.183 28.4536 189.183 27.8227V26.9464C189.183 26.3155 189.439 26 189.951 26H191.789C192.022 26 192.216 26.1285 192.371 26.3856C192.542 26.6192 192.627 26.923 192.627 27.2969V49.1691H193.232C193.744 49.1691 194 49.4845 194 50.1155V50.9917C194 51.6227 193.744 51.9381 193.232 51.9381H189.951Z" fill="white"/>
<path d="M198.985 52.2887C198.504 52.2887 198.101 52.055 197.775 51.5876C197.465 51.1203 197.309 50.5244 197.309 49.8C197.309 49.0756 197.465 48.4914 197.775 48.0474C198.101 47.5801 198.504 47.3464 198.985 47.3464C199.481 47.3464 199.884 47.5801 200.195 48.0474C200.52 48.4914 200.683 49.0756 200.683 49.8C200.683 50.5244 200.52 51.1203 200.195 51.5876C199.884 52.055 199.481 52.2887 198.985 52.2887Z" fill="white"/>
<path d="M215.539 49.1691C216.05 49.1691 216.306 49.4845 216.306 50.1155V50.9917C216.306 51.6227 216.05 51.9381 215.539 51.9381H213.724C213.476 51.9381 213.266 51.8213 213.095 51.5876C212.94 51.3306 212.863 51.0151 212.863 50.6412V48.433C212.584 49.5313 212.08 50.4543 211.35 51.2021C210.637 51.9265 209.877 52.2887 209.07 52.2887C208.14 52.2887 207.318 51.9265 206.604 51.2021C205.906 50.4777 205.363 49.4495 204.975 48.1175C204.603 46.7622 204.417 45.1849 204.417 43.3856C204.417 40.488 204.867 38.2096 205.766 36.5505C206.682 34.8914 207.93 34.0619 209.512 34.0619C210.164 34.0619 210.784 34.2955 211.374 34.7629C211.963 35.2302 212.46 35.8845 212.863 36.7258V28.7691H212.258C211.746 28.7691 211.49 28.4536 211.49 27.8227V26.9464C211.49 26.3155 211.746 26 212.258 26H214.119C214.352 26 214.546 26.1285 214.701 26.3856C214.856 26.6192 214.934 26.923 214.934 27.2969V49.1691H215.539ZM209.536 49.5546C210.141 49.5546 210.699 49.3093 211.211 48.8186C211.723 48.3045 212.126 47.6151 212.421 46.7505C212.715 45.8859 212.863 44.9395 212.863 43.9113V39.3546C212.429 38.5368 211.94 37.9058 211.397 37.4619C210.87 37.0179 210.311 36.7959 209.722 36.7959C208.683 36.7959 207.891 37.3801 207.349 38.5485C206.806 39.6935 206.534 41.3643 206.534 43.5608C206.534 45.4536 206.798 46.9258 207.325 47.9773C207.853 49.0289 208.589 49.5546 209.536 49.5546Z" fill="white"/>
<path d="M229.255 49.1691C229.752 49.1691 230 49.4845 230 50.1155V50.9917C230 51.6227 229.752 51.9381 229.255 51.9381H227.65C227.526 51.9381 227.417 51.9148 227.324 51.868C227.247 51.7979 227.154 51.6694 227.045 51.4825L221.438 43V49.1691H222.043C222.555 49.1691 222.81 49.4845 222.81 50.1155V50.9917C222.81 51.6227 222.555 51.9381 222.043 51.9381H218.785C218.273 51.9381 218.017 51.6227 218.017 50.9917V50.1155C218.017 49.4845 218.273 49.1691 218.785 49.1691H219.39V28.7691H218.785C218.273 28.7691 218.017 28.4536 218.017 27.8227V26.9464C218.017 26.3155 218.273 26 218.785 26H220.577C220.825 26 221.027 26.1285 221.182 26.3856C221.352 26.6192 221.438 26.923 221.438 27.2969V42.1237L224.649 38.4783C225.378 37.6137 225.975 37.1814 226.44 37.1814H225.23C224.734 37.1814 224.486 36.866 224.486 36.2351V35.3588C224.486 34.7278 224.734 34.4124 225.23 34.4124H229.116C229.628 34.4124 229.884 34.7278 229.884 35.3588V36.2351C229.884 36.866 229.628 37.1814 229.116 37.1814H228.301L223.718 42.334L228.255 49.1691H229.255Z" fill="white"/>
<defs>
<linearGradient id="paint0_linear" x1="26.623" y1="0.178711" x2="26.623" y2="20.4591" gradientUnits="userSpaceOnUse">
<stop stop-color="#FB00FF"/>
<stop offset="1" stop-color="#A301A6"/>
</linearGradient>
<linearGradient id="paint1_linear" x1="7.93873" y1="27.123" x2="7.93873" y2="49.92" gradientUnits="userSpaceOnUse">
<stop stop-color="#A901AC"/>
<stop offset="0.557292" stop-color="#F900FD"/>
</linearGradient>
<linearGradient id="paint2_linear" x1="13.6824" y1="27.123" x2="13.6824" y2="49.92" gradientUnits="userSpaceOnUse">
<stop stop-color="#A901AC"/>
<stop offset="0.557292" stop-color="#F900FD"/>
</linearGradient>
<linearGradient id="paint3_linear" x1="20.1441" y1="27.123" x2="20.1441" y2="49.92" gradientUnits="userSpaceOnUse">
<stop stop-color="#A901AC"/>
<stop offset="0.557292" stop-color="#F900FD"/>
</linearGradient>
<linearGradient id="paint4_linear" x1="30.913" y1="27.123" x2="30.913" y2="49.92" gradientUnits="userSpaceOnUse">
<stop stop-color="#A901AC"/>
<stop offset="0.557292" stop-color="#F900FD"/>
</linearGradient>
<linearGradient id="paint5_linear" x1="37.3748" y1="27.123" x2="37.3748" y2="49.92" gradientUnits="userSpaceOnUse">
<stop stop-color="#A901AC"/>
<stop offset="0.557292" stop-color="#F900FD"/>
</linearGradient>
<linearGradient id="paint6_linear" x1="43.1179" y1="27.123" x2="43.1179" y2="49.92" gradientUnits="userSpaceOnUse">
<stop stop-color="#A901AC"/>
<stop offset="0.557292" stop-color="#F900FD"/>
</linearGradient>
</defs>
</svg>
