<svg width="290" height="125" viewBox="0 0 290 125" fill="none" xmlns="http://www.w3.org/2000/svg">
<path d="M285.308 124.5H4.69231C2.10082 124.5 0 122.399 0 119.808V66.5796C0 64.8788 1.3788 63.5 3.07965 63.5H35.9292H40.25C43.4256 63.5 46 66.0744 46 69.25C46 72.4256 48.5744 75 51.75 75H92.8907C96.3099 75 98.8744 71.8718 98.2038 68.519C98.0692 67.8458 97.8078 67.2043 97.4337 66.6287L91.5 57.5L86.233 48.7217C85.1005 46.8342 86.0489 44.3853 88.1572 43.7529C88.7098 43.5871 89.2958 43.5657 89.859 43.6909L93.9736 44.6052C96.6286 45.1952 99.3776 45.2245 102.045 44.6911L103.162 44.4676C106.356 43.8287 109.395 42.5703 112.105 40.7633L119.081 36.1127C124.547 32.4689 128.687 27.1549 130.884 20.9641L131.906 18.0845C132.627 16.0499 133.76 14.1856 135.233 12.6073L136.392 11.3661C142.088 5.26321 151.795 5.37036 157.355 11.5975C158.767 13.179 159.807 15.0569 160.398 17.0931L161.181 19.7885C162.997 26.0438 167.048 31.4138 172.564 34.8775L183.333 41.6396C184.772 42.5428 186.321 43.2565 187.942 43.7631L190.746 44.6394C192.544 45.2012 194.465 45.2319 196.28 44.7278L199.326 43.8816C201.251 43.3469 203.31 44.012 204.558 45.5721C205.747 47.0582 205.986 49.0913 205.176 50.8133L202.926 55.5954C202.642 56.1977 202.315 56.778 201.945 57.3318L196.5 65.5C193.842 70.1516 197.236 75.9323 202.593 75.8785L283.904 75.0613C287.261 75.0275 290 77.7393 290 81.0962V119.808C290 122.399 287.899 124.5 285.308 124.5Z" fill="white"/>
<path d="M158 22.4966C160.978 34.3685 168.473 40.8211 196 51.4965L101.5 50.9965C119.779 41.188 130.518 35.8215 135.5 22.4966H133V20.4966C136.994 17.325 139.524 16.3629 144.5 15.9966C133 7.49993 158.5 5.5 148.5 15.9966C153.662 16.1138 156.204 17.3901 160.5 20.4966V22.4966H158Z" fill="url(#paint0_linear)"/>
<path d="M89.5 46.4998L100.5 65.9998H193L203 46.4998C199.842 45.1527 197.965 46.3014 194.5 50.4998C188.643 46.2552 185.357 46.0735 179.5 50.4998C174.865 46.6308 171.476 46.3509 163.5 50.4998C157.056 46.7337 153.444 46.1924 147 50.4998C139.842 46.611 135.99 46.3714 129.5 50.4998C122.698 45.4772 119.13 46.1036 113 50.4998C107.891 46.6266 105.184 43.3527 98.5 50.4998C93.8947 46.618 91.813 45.4947 89.5 46.4998Z" fill="#AB00AE"/>
<path d="M99 64L194 63.5" stroke="#FF0000"/>
<path d="M105.5 79.5V66H109.5V79.5H105.5Z" fill="url(#paint1_linear)"/>
<path d="M117.5 79.5V66H121.5V79.5H117.5Z" fill="url(#paint2_linear)"/>
<path d="M132.5 79.5V66H136.5V79.5H132.5Z" fill="url(#paint3_linear)"/>
<path d="M155.5 79.5V66H159.5V79.5H155.5Z" fill="url(#paint4_linear)"/>
<path d="M171.5 79.5V66H175.5V79.5H171.5Z" fill="url(#paint5_linear)"/>
<path d="M183.5 79.5V66H187.5V79.5H183.5Z" fill="url(#paint6_linear)"/>
<circle cx="107.5" cy="56" r="3.5" fill="#FFE600"/>
<circle cx="122.5" cy="56" r="3.5" fill="#FFE600"/>
<circle cx="138.5" cy="56" r="3.5" fill="#FFE600"/>
<circle cx="155.5" cy="56" r="3.5" fill="#FFE600"/>
<circle cx="170.5" cy="56" r="3.5" fill="#FFE600"/>
<circle cx="185.5" cy="56" r="3.5" fill="#FFE600"/>
<path d="M200 55.9999C199 58.5 197.433 59.4999 196.5 59.4999C195.5 58.4999 195 57.9329 195 55.9999C195 54.0669 197.567 51.4999 199.5 52.4999C200.433 53.4999 200.5 55 200 55.9999Z" fill="#FFE600"/>
<path d="M92.3087 56.2236C93.3087 58.7236 95.567 59 96.5 59C97.5 58 97.3087 57.1566 97.3087 56.2236C97.3087 54.2906 94.7417 51.7236 92.8087 52.7236C91.8757 53.7236 91.8087 55.2236 92.3087 56.2236Z" fill="#FFE600"/>
<path d="M283 120H8.5C6.29086 120 4.5 118.209 4.5 116V71C4.5 69.3431 5.84315 68 7.5 68H39.5C41.433 68 43 69.567 43 71.5V73.5C43 76.5376 45.4624 79 48.5 79H283C285.209 79 287 80.7909 287 83V116C287 118.209 285.209 120 283 120Z" fill="#D3D3D3"/>
<path d="M59.9268 109.533C59.9268 110.227 59.6878 110.831 59.21 111.344C58.7505 111.857 58.19 112.114 57.5283 112.114C56.4991 112.114 55.764 111.601 55.3229 110.574C54.9002 111.601 54.1742 112.114 53.145 112.114C52.465 112.114 51.8861 111.857 51.4082 111.344C50.9488 110.831 50.719 110.227 50.719 109.533C50.719 108.869 50.9763 108.31 51.4909 107.858C52.0056 107.375 52.2629 106.967 52.2629 106.635C52.2629 106.545 52.2445 106.424 52.2077 106.273L51.4358 103.013C51.3439 102.651 51.1785 102.47 50.9396 102.47H47.8244C47.5855 102.47 47.4293 102.651 47.3557 103.013L46.5563 106.273C46.5195 106.424 46.5011 106.56 46.5011 106.68C46.5011 106.982 46.7584 107.375 47.273 107.858C47.7876 108.31 48.0449 108.869 48.0449 109.533C48.0449 110.227 47.806 110.831 47.3282 111.344C46.8687 111.857 46.3082 112.114 45.6465 112.114H45.426C44.746 112.114 44.167 111.857 43.6892 111.344C43.2297 110.831 43 110.227 43 109.533C43 108.778 43.2022 108.175 43.6065 107.722C44.1027 107.179 44.3968 106.696 44.4887 106.273L45.7568 100.93C45.8487 100.568 45.8027 100.251 45.619 99.9793C45.233 99.3152 45.0952 98.621 45.2054 97.8965C45.4627 97.5645 45.8487 97.2173 46.3633 96.8551C46.4736 96.8249 46.6298 96.6287 46.832 96.2665L48.3758 89.7917C48.4125 89.671 48.4309 89.5502 48.4309 89.4295C48.4309 89.0975 48.1736 88.705 47.659 88.2523C47.1444 87.7693 46.8871 87.2109 46.8871 86.577C46.8871 85.8525 47.1168 85.2337 47.5763 84.7206C48.0541 84.2074 48.6331 83.9508 49.3131 83.9508C50.3607 83.9508 51.105 84.464 51.5461 85.4903C51.9688 84.464 52.6948 83.9508 53.724 83.9508C54.3856 83.9508 54.9553 84.2074 55.4332 84.7206C55.911 85.2337 56.1499 85.8525 56.1499 86.577C56.1499 87.2109 55.8926 87.7693 55.378 88.2523C54.8634 88.705 54.6061 89.0975 54.6061 89.4295C54.6061 89.5502 54.6153 89.671 54.6337 89.7917L56.0948 96.2665C56.1683 96.6287 56.3245 96.8249 56.5635 96.8551C57.1883 96.9155 57.5743 97.2626 57.7213 97.8965C57.85 98.621 57.7121 99.3152 57.3078 99.9793C57.1424 100.251 57.0964 100.568 57.17 100.93L58.4381 106.273C58.53 106.696 58.824 107.179 59.3203 107.722C59.7246 108.175 59.9268 108.778 59.9268 109.533ZM50.278 98.3946L49.5612 95.3157C49.4877 94.9836 49.4142 94.9987 49.3406 95.3609L48.5687 98.3946C48.532 98.5757 48.5136 98.7719 48.5136 98.9832C48.532 99.2247 48.5963 99.3454 48.7066 99.3454C49.1844 99.3454 49.6715 99.3454 50.1677 99.3454C50.278 99.3454 50.3331 99.2247 50.3331 98.9832C50.3515 98.8021 50.3331 98.6059 50.278 98.3946Z" fill="url(#paint7_linear)"/>
<path d="M79.8287 111.571C79.8103 115.857 78.6249 118 76.2724 118C74.6 118 73.3227 117.381 72.4405 116.144C71.6502 114.997 71.2551 113.442 71.2551 111.48C71.2551 110.091 71.448 108.627 71.834 107.088C72.0178 106.333 72.1097 105.594 72.1097 104.869C72.1097 103.541 71.8248 102.349 71.2551 101.292C70.7588 100.387 70.2626 99.934 69.7664 99.934C69.3804 99.934 69.1875 100.281 69.1875 100.975V106.273C69.1875 106.786 69.4356 107.284 69.9318 107.767C70.428 108.25 70.6761 108.839 70.6761 109.533C70.6761 110.227 70.4372 110.831 69.9594 111.344C69.4999 111.857 68.9393 112.114 68.2777 112.114C67.2485 112.114 66.5134 111.601 66.0723 110.574C65.6496 111.601 64.9236 112.114 63.8944 112.114C63.2144 112.114 62.6355 111.857 62.1576 111.344C61.6981 110.831 61.4684 110.227 61.4684 109.533C61.4684 108.839 61.7165 108.25 62.2128 107.767C62.709 107.284 62.9571 106.786 62.9571 106.273V100.523C62.9571 100.13 62.856 99.8586 62.6538 99.7076C62.1209 99.3152 61.836 98.7568 61.7992 98.0323C61.8176 97.821 61.8544 97.6248 61.9095 97.4437C62.0565 96.9608 62.3046 96.5985 62.6538 96.357C62.856 96.2061 62.9571 95.9345 62.9571 95.542V89.7917C62.9571 89.2786 62.709 88.7805 62.2128 88.2975C61.7165 87.8146 61.4684 87.2411 61.4684 86.577C61.4684 85.8525 61.6981 85.2337 62.1576 84.7206C62.6355 84.2074 63.2144 83.9508 63.8944 83.9508C64.9971 83.9508 65.7231 84.464 66.0723 85.4903L66.0998 85.5356L66.2652 85.3997C67.7172 83.8905 69.601 83.1358 71.9167 83.1358C74.5448 83.1358 76.493 84.0867 77.7611 85.9884C78.6984 87.4071 79.1671 89.0975 79.1671 91.0595C79.1671 94.6214 77.9725 97.0815 75.5832 98.4398C75.3259 98.5908 75.1881 98.6964 75.1697 98.7568C75.1697 98.7568 75.3076 98.7719 75.5832 98.8021C77.3843 99.0737 78.2849 100.719 78.2849 103.737C78.2849 104.673 77.8989 106.303 77.127 108.627C76.3735 110.952 75.9968 112.536 75.9968 113.382C75.9968 114.287 76.2816 114.921 76.8514 115.283C76.9433 115.344 77.0351 115.374 77.127 115.374C77.4762 115.374 77.7335 114.861 77.8989 113.834C77.366 113.593 77.0995 112.838 77.0995 111.571C77.0995 111.148 77.2281 110.725 77.4854 110.303C77.7611 109.85 78.046 109.624 78.34 109.624C79.3325 109.624 79.8287 110.273 79.8287 111.571ZM73.2951 91.1501C73.2951 89.8823 73.1205 88.7956 72.7713 87.89C72.3853 86.8335 71.834 86.3053 71.1172 86.3053C70.2534 86.3053 69.6837 86.8788 69.408 88.0259C69.2426 88.69 69.1691 89.8068 69.1875 91.3765V95.542C69.1875 95.9345 69.2977 96.2061 69.5183 96.357C69.8123 96.5683 70.1064 96.674 70.4004 96.674C71.1724 96.674 71.8432 96.1005 72.4129 94.9534C73.001 93.7762 73.2951 92.5084 73.2951 91.1501Z" fill="url(#paint8_linear)"/>
<path d="M98.5123 109.533C98.5123 110.227 98.2734 110.831 97.7955 111.344C97.3177 111.857 96.7479 112.114 96.0863 112.114C95.0387 112.114 94.2944 111.601 93.8533 110.574C93.4306 111.601 92.7046 112.114 91.6754 112.114C90.9954 112.114 90.4165 111.857 89.9386 111.344C89.4792 110.831 89.2494 110.227 89.2494 109.533C89.2494 108.869 89.5159 108.295 90.0489 107.812C90.5819 107.299 90.8484 106.937 90.8484 106.726C90.8484 106.605 90.8116 106.454 90.7381 106.273L85.1418 93.5951C84.9764 93.2027 84.8937 93.263 84.8937 93.7762V95.542C84.8937 95.9345 84.9948 96.2061 85.1969 96.357C85.7299 96.7495 86.0148 97.3079 86.0515 98.0323C86.0332 98.2436 85.9964 98.4549 85.9413 98.6662C85.7942 99.119 85.5461 99.4661 85.1969 99.7076C84.9948 99.8887 84.8937 100.16 84.8937 100.523V106.273C84.8937 106.786 85.1418 107.284 85.638 107.767C86.1342 108.25 86.3824 108.839 86.3824 109.533C86.3824 110.227 86.1434 110.831 85.6656 111.344C85.2061 111.857 84.6364 112.114 83.9564 112.114H83.7358C83.0742 112.114 82.5045 111.857 82.0266 111.344C81.5671 110.831 81.3374 110.227 81.3374 109.533C81.3374 108.839 81.5855 108.25 82.0817 107.767C82.578 107.284 82.8261 106.786 82.8261 106.273V100.523C82.8261 100.16 82.7158 99.8887 82.4953 99.7076C81.9807 99.3454 81.705 98.787 81.6682 98.0323C81.6682 97.821 81.705 97.6248 81.7785 97.4437C81.9071 96.9909 82.1461 96.6287 82.4953 96.357C82.7158 96.2061 82.8261 95.9345 82.8261 95.542L82.7985 89.7917C82.7985 89.2786 82.5504 88.7805 82.0542 88.2975C81.558 87.8146 81.3098 87.2411 81.3098 86.577C81.3098 85.8525 81.5396 85.2337 81.999 84.7206C82.4769 84.2074 83.0558 83.9508 83.7358 83.9508C84.7834 83.9508 85.5277 84.464 85.9688 85.4903C86.3915 84.464 87.1175 83.9508 88.1467 83.9508C88.8083 83.9508 89.3781 84.2074 89.8559 84.7206C90.3338 85.2337 90.5727 85.8525 90.5727 86.577C90.5727 87.2109 90.3062 87.7844 89.7732 88.2975C89.2402 88.7805 88.9737 89.1276 88.9737 89.3389C88.9737 89.4899 89.0013 89.6408 89.0565 89.7917L94.5976 102.334C94.6711 102.485 94.7447 102.53 94.8182 102.47C94.8917 102.409 94.9284 102.288 94.9284 102.107V100.523C94.9284 100.13 94.8182 99.8586 94.5976 99.7076C94.083 99.3152 93.8073 98.7568 93.7706 98.0323C93.7706 97.821 93.8073 97.6248 93.8809 97.4437C94.0095 96.9608 94.2484 96.5985 94.5976 96.357C94.8182 96.2061 94.9284 95.9345 94.9284 95.542V89.7917C94.9284 89.2786 94.6803 88.7805 94.1841 88.2975C93.6879 87.8146 93.4398 87.2411 93.4398 86.577C93.4398 85.8525 93.6695 85.2337 94.129 84.7206C94.6068 84.2074 95.1766 83.9508 95.8382 83.9508H96.0587C96.7387 83.9508 97.3085 84.2074 97.7679 84.7206C98.2458 85.2337 98.4847 85.8525 98.4847 86.577C98.4847 87.2411 98.2366 87.8146 97.7404 88.2975C97.2441 88.7805 96.996 89.2786 96.996 89.7917V95.542C96.996 95.9345 97.0971 96.2061 97.2993 96.357C97.8323 96.7495 98.1171 97.3079 98.1539 98.0323C98.1355 98.2436 98.0988 98.4398 98.0436 98.621C97.915 99.0737 97.6761 99.436 97.3269 99.7076C97.1063 99.8586 96.996 100.13 96.996 100.523V106.273C96.996 106.786 97.2441 107.284 97.7404 107.767C98.255 108.25 98.5123 108.839 98.5123 109.533Z" fill="url(#paint9_linear)"/>
<path d="M116.643 88.9767C116.349 91.1802 115.642 92.282 114.521 92.282C114.337 92.282 114.153 92.2518 113.969 92.1915C112.867 91.8594 112.315 90.8331 112.315 89.1125C112.315 88.5088 112.38 87.9202 112.508 87.3467C112.508 86.3204 112.113 85.8072 111.323 85.8072C110.606 85.8072 109.834 86.1997 109.007 86.9845C108.198 87.7391 107.794 88.4937 107.794 89.2484V95.0893C107.794 95.6024 107.904 95.8741 108.125 95.9043L111.102 96.357C111.672 96.4476 111.957 97.006 111.957 98.0323C111.957 99.0586 111.672 99.6171 111.102 99.7076L108.125 100.16C107.904 100.191 107.794 100.462 107.794 100.975V104.19C107.794 105.398 107.969 106.379 108.318 107.133C108.685 107.858 109.163 108.22 109.751 108.22C110.744 108.22 111.654 107.013 112.481 104.598C112.94 103.27 113.216 102.53 113.308 102.379C113.694 101.594 114.19 101.202 114.796 101.202C115.421 101.202 115.899 101.685 116.23 102.651C116.506 103.436 116.616 104.266 116.561 105.141L116.368 108.129C116.202 110.786 115.458 112.114 114.135 112.114C113.308 112.114 112.536 111.601 111.819 110.574C111.121 111.601 109.926 112.114 108.235 112.114C106.563 112.114 105.377 111.601 104.679 110.574C104.238 111.601 103.503 112.114 102.473 112.114C101.793 112.114 101.215 111.857 100.737 111.344C100.277 110.831 100.047 110.227 100.047 109.533C100.047 108.839 100.296 108.25 100.792 107.767C101.288 107.284 101.536 106.786 101.536 106.273V100.523C101.536 100.13 101.435 99.8586 101.233 99.7076C100.7 99.3152 100.415 98.7568 100.378 98.0323C100.397 97.821 100.433 97.6248 100.489 97.4437C100.636 96.9608 100.884 96.5985 101.233 96.357C101.435 96.2061 101.536 95.9345 101.536 95.542V89.7917C101.536 89.2786 101.288 88.7956 100.792 88.3428C100.296 87.8599 100.047 87.2712 100.047 86.577C100.047 85.8525 100.277 85.2337 100.737 84.7206C101.215 84.2074 101.793 83.9508 102.473 83.9508C103.484 83.9508 104.21 84.4489 104.651 85.445C105.092 84.8111 105.883 84.2527 107.022 83.7697C108.235 83.2566 109.503 83 110.827 83C113.124 83 114.76 83.6792 115.734 85.0375C116.377 85.9129 116.699 86.9845 116.699 88.2523C116.699 88.5239 116.68 88.7654 116.643 88.9767Z" fill="url(#paint10_linear)"/>
<path d="M135.173 86.577C135.173 87.3014 134.971 87.89 134.567 88.3428C134.071 88.8862 133.777 89.3691 133.685 89.7917L132.417 95.1345C132.343 95.4968 132.389 95.8288 132.554 96.1307C132.959 96.7646 133.097 97.4437 132.968 98.1682C132.729 98.5002 132.343 98.8473 131.81 99.2096C131.7 99.2398 131.544 99.436 131.341 99.7982L129.798 106.273C129.761 106.424 129.743 106.545 129.743 106.635C129.743 106.967 130 107.375 130.514 107.858C131.029 108.31 131.286 108.869 131.286 109.533C131.286 110.227 131.047 110.831 130.57 111.344C130.11 111.857 129.55 112.114 128.888 112.114C127.822 112.114 127.078 111.601 126.655 110.574C126.214 111.601 125.479 112.114 124.449 112.114C123.788 112.114 123.218 111.857 122.74 111.344C122.281 110.831 122.051 110.227 122.051 109.533C122.051 108.869 122.308 108.31 122.823 107.858C123.338 107.375 123.595 106.967 123.595 106.635C123.595 106.545 123.576 106.424 123.54 106.273L122.079 99.7982C122.005 99.436 121.849 99.2398 121.61 99.2096C121.003 99.1794 120.618 98.8323 120.452 98.1682C120.342 97.4437 120.48 96.7646 120.866 96.1307C121.049 95.8288 121.095 95.4968 121.003 95.1345L119.735 89.7917C119.643 89.3691 119.349 88.8862 118.853 88.3428C118.449 87.89 118.247 87.3014 118.247 86.577C118.247 85.8525 118.476 85.2337 118.936 84.7206C119.414 84.2074 119.993 83.9508 120.673 83.9508C121.702 83.9508 122.428 84.464 122.851 85.4903C123.292 84.464 124.027 83.9508 125.056 83.9508C125.718 83.9508 126.278 84.2074 126.738 84.7206C127.215 85.2337 127.454 85.8525 127.454 86.577C127.454 87.2109 127.197 87.7693 126.682 88.2523C126.168 88.705 125.911 89.0975 125.911 89.4295C125.911 89.5502 125.929 89.671 125.966 89.7917L126.765 93.0517C126.857 93.414 127.013 93.5951 127.234 93.5951C127.859 93.6555 128.254 94.0026 128.419 94.6365C128.548 95.3609 128.41 96.0552 128.006 96.7193C127.84 96.9909 127.804 97.3079 127.895 97.6701C128.098 98.4549 128.392 99.6473 128.778 101.247L131.617 89.7917C131.654 89.6408 131.672 89.52 131.672 89.4295C131.672 89.0975 131.415 88.705 130.9 88.2523C130.386 87.7693 130.128 87.2109 130.128 86.577C130.128 85.8525 130.358 85.2337 130.818 84.7206C131.296 84.2074 131.874 83.9508 132.554 83.9508H132.775C133.437 83.9508 133.997 84.2074 134.457 84.7206C134.935 85.2337 135.173 85.8525 135.173 86.577Z" fill="url(#paint11_linear)"/>
<path d="M149.954 109.533C149.954 110.227 149.715 110.831 149.237 111.344C148.777 111.857 148.217 112.114 147.555 112.114C146.526 112.114 145.791 111.601 145.35 110.574C144.927 111.601 144.201 112.114 143.172 112.114C142.492 112.114 141.913 111.857 141.435 111.344C140.976 110.831 140.746 110.227 140.746 109.533C140.746 108.869 141.003 108.31 141.518 107.858C142.032 107.375 142.29 106.967 142.29 106.635C142.29 106.545 142.271 106.424 142.234 106.273L141.463 103.013C141.371 102.651 141.205 102.47 140.966 102.47H137.851C137.612 102.47 137.456 102.651 137.383 103.013L136.583 106.273C136.546 106.424 136.528 106.56 136.528 106.68C136.528 106.982 136.785 107.375 137.3 107.858C137.814 108.31 138.072 108.869 138.072 109.533C138.072 110.227 137.833 110.831 137.355 111.344C136.895 111.857 136.335 112.114 135.673 112.114H135.453C134.773 112.114 134.194 111.857 133.716 111.344C133.257 110.831 133.027 110.227 133.027 109.533C133.027 108.778 133.229 108.175 133.633 107.722C134.13 107.179 134.424 106.696 134.515 106.273L135.784 100.93C135.875 100.568 135.83 100.251 135.646 99.9793C135.26 99.3152 135.122 98.621 135.232 97.8965C135.49 97.5645 135.875 97.2173 136.39 96.8551C136.5 96.8249 136.657 96.6287 136.859 96.2665L138.403 89.7917C138.439 89.671 138.458 89.5502 138.458 89.4295C138.458 89.0975 138.2 88.705 137.686 88.2523C137.171 87.7693 136.914 87.2109 136.914 86.577C136.914 85.8525 137.144 85.2337 137.603 84.7206C138.081 84.2074 138.66 83.9508 139.34 83.9508C140.387 83.9508 141.132 84.464 141.573 85.4903C141.996 84.464 142.722 83.9508 143.751 83.9508C144.412 83.9508 144.982 84.2074 145.46 84.7206C145.938 85.2337 146.177 85.8525 146.177 86.577C146.177 87.2109 145.919 87.7693 145.405 88.2523C144.89 88.705 144.633 89.0975 144.633 89.4295C144.633 89.5502 144.642 89.671 144.66 89.7917L146.122 96.2665C146.195 96.6287 146.351 96.8249 146.59 96.8551C147.215 96.9155 147.601 97.2626 147.748 97.8965C147.877 98.621 147.739 99.3152 147.335 99.9793C147.169 100.251 147.123 100.568 147.197 100.93L148.465 106.273C148.557 106.696 148.851 107.179 149.347 107.722C149.751 108.175 149.954 108.778 149.954 109.533ZM140.305 98.3946L139.588 95.3157C139.514 94.9836 139.441 94.9987 139.367 95.3609L138.596 98.3946C138.559 98.5757 138.54 98.7719 138.54 98.9832C138.559 99.2247 138.623 99.3454 138.733 99.3454C139.211 99.3454 139.698 99.3454 140.194 99.3454C140.305 99.3454 140.36 99.2247 140.36 98.9832C140.378 98.8021 140.36 98.6059 140.305 98.3946Z" fill="url(#paint12_linear)"/>
<path d="M168.008 105.141L167.815 108.129C167.65 110.786 166.906 112.114 165.582 112.114C164.755 112.114 163.984 111.601 163.267 110.574C162.568 111.601 161.374 112.114 159.683 112.114C158.01 112.114 156.825 111.601 156.127 110.574C155.686 111.601 154.95 112.114 153.921 112.114C153.241 112.114 152.662 111.857 152.184 111.344C151.725 110.831 151.495 110.227 151.495 109.533C151.495 108.839 151.743 108.25 152.24 107.767C152.736 107.284 152.984 106.786 152.984 106.273V100.523C152.984 100.13 152.883 99.8586 152.681 99.7076C152.148 99.3152 151.863 98.7568 151.826 98.0323C151.844 97.821 151.881 97.6248 151.936 97.4437C152.083 96.9608 152.331 96.5985 152.681 96.357C152.883 96.2061 152.984 95.9345 152.984 95.542V89.7917C152.984 89.2786 152.736 88.7956 152.24 88.3428C151.743 87.8599 151.495 87.2712 151.495 86.577C151.495 85.8525 151.725 85.2337 152.184 84.7206C152.662 84.2074 153.241 83.9508 153.921 83.9508C154.95 83.9508 155.686 84.464 156.127 85.4903C156.549 84.464 157.275 83.9508 158.304 83.9508C158.985 83.9508 159.554 84.2074 160.014 84.7206C160.492 85.2337 160.73 85.8525 160.73 86.577C160.73 87.2712 160.482 87.8599 159.986 88.3428C159.49 88.7956 159.242 89.2786 159.242 89.7917V95.542C159.242 95.9345 159.352 96.2061 159.573 96.357C160.087 96.7495 160.363 97.3079 160.4 98.0323C160.4 98.2436 160.363 98.4398 160.289 98.621C160.161 99.0737 159.922 99.436 159.573 99.7076C159.352 99.8586 159.242 100.13 159.242 100.523V104.19C159.242 105.398 159.416 106.379 159.766 107.133C160.133 107.858 160.611 108.22 161.199 108.22C162.192 108.22 163.101 107.013 163.928 104.598C164.388 103.27 164.664 102.53 164.755 102.379C165.141 101.594 165.638 101.202 166.244 101.202C166.869 101.202 167.347 101.685 167.678 102.651C167.953 103.436 168.064 104.266 168.008 105.141Z" fill="url(#paint13_linear)"/>
<path d="M184.547 102.379C184.547 105.458 183.757 107.978 182.176 109.94C180.614 111.903 178.574 112.884 176.056 112.884C171.223 112.884 168.806 110.454 168.806 105.594C168.806 104.266 169.017 103.239 169.44 102.515C169.808 101.911 170.276 101.609 170.846 101.609C171.508 101.609 172.059 101.987 172.5 102.741C172.868 103.345 173.051 104.054 173.051 104.869C173.051 105.564 172.941 106.258 172.721 106.952C172.61 107.254 172.555 107.586 172.555 107.948C172.555 109.397 173.52 110.122 175.45 110.122C176.35 110.122 177.076 109.79 177.628 109.125C178.124 108.492 178.372 107.677 178.372 106.68C178.372 105.503 178.004 104.477 177.269 103.602C176.81 103.028 175.854 102.198 174.402 101.111C172.969 99.9944 171.958 98.9983 171.37 98.1229C170.396 96.6136 169.909 94.727 169.909 92.4631C169.909 88.5994 171.112 85.928 173.52 84.4489C174.77 83.6943 176.249 83.3169 177.959 83.3169C182.057 83.3169 184.106 85.5356 184.106 89.9728C184.106 90.9086 183.913 91.6934 183.527 92.3273C183.141 92.931 182.673 93.2329 182.121 93.2329C181.423 93.2329 180.789 92.7197 180.219 91.6934C179.943 91.2104 179.806 90.7275 179.806 90.2445C179.806 89.9125 179.898 89.505 180.081 89.022C180.265 88.5088 180.357 88.1466 180.357 87.9353C180.357 87.6033 180.237 87.3014 179.999 87.0298C179.429 86.3355 178.887 86.0185 178.372 86.0789C177.802 86.0789 177.315 86.3506 176.911 86.8939C176.507 87.4373 176.304 88.1315 176.304 88.9767C176.304 90.0332 176.608 90.8784 177.214 91.5123C177.655 92.0254 178.767 92.8555 180.55 94.0026C183.215 95.7232 184.547 98.5153 184.547 102.379Z" fill="url(#paint14_linear)"/>
<path d="M203.788 91.0595C203.788 96.8249 200.572 99.7076 194.14 99.7076C193.919 99.7076 193.809 99.9793 193.809 100.523V106.273C193.809 106.786 194.057 107.284 194.553 107.767C195.049 108.25 195.298 108.839 195.298 109.533C195.298 110.227 195.059 110.831 194.581 111.344C194.121 111.857 193.561 112.114 192.899 112.114C191.87 112.114 191.135 111.601 190.694 110.574C190.271 111.601 189.545 112.114 188.516 112.114C187.836 112.114 187.257 111.857 186.779 111.344C186.32 110.831 186.09 110.227 186.09 109.533C186.09 108.839 186.338 108.25 186.834 107.767C187.33 107.284 187.578 106.786 187.578 106.273V100.523C187.578 100.13 187.477 99.8586 187.275 99.7076C186.742 99.3152 186.457 98.7568 186.421 98.0323C186.439 97.821 186.476 97.6248 186.531 97.4437C186.678 96.9608 186.926 96.5985 187.275 96.357C187.477 96.2061 187.578 95.9345 187.578 95.542V89.7917C187.578 89.2786 187.33 88.7805 186.834 88.2975C186.338 87.8146 186.09 87.2411 186.09 86.577C186.09 85.8525 186.32 85.2337 186.779 84.7206C187.257 84.2074 187.836 83.9508 188.516 83.9508C189.619 83.9508 190.344 84.464 190.694 85.4903L190.721 85.5356L190.887 85.3997C192.339 83.8905 194.222 83.1358 196.538 83.1358C199.166 83.1358 201.114 84.0867 202.383 85.9884C203.32 87.4071 203.788 89.0975 203.788 91.0595ZM197.917 91.1501C197.917 89.8823 197.742 88.7956 197.393 87.89C197.007 86.8335 196.455 86.3053 195.739 86.3053C194.875 86.3053 194.305 86.8788 194.029 88.0259C193.864 88.69 193.79 89.8068 193.809 91.3765V95.542C193.809 95.9345 193.919 96.2061 194.14 96.357C194.434 96.5683 194.728 96.674 195.022 96.674C195.794 96.674 196.465 96.1005 197.034 94.9534C197.622 93.7762 197.917 92.5084 197.917 91.1501Z" fill="url(#paint15_linear)"/>
<path d="M213.524 109.533C213.524 110.227 213.285 110.831 212.807 111.344C212.347 111.857 211.787 112.114 211.125 112.114C210.096 112.114 209.361 111.601 208.92 110.574C208.497 111.601 207.771 112.114 206.742 112.114C206.062 112.114 205.483 111.857 205.005 111.344C204.546 110.831 204.316 110.227 204.316 109.533C204.316 108.839 204.564 108.25 205.06 107.767C205.557 107.284 205.805 106.786 205.805 106.273V100.523C205.805 100.13 205.704 99.8586 205.501 99.7076C204.968 99.3152 204.684 98.7568 204.647 98.0323C204.665 97.821 204.702 97.6248 204.757 97.4437C204.904 96.9608 205.152 96.5985 205.501 96.357C205.704 96.2061 205.805 95.9345 205.805 95.542V89.7917C205.805 89.2786 205.557 88.7805 205.06 88.2975C204.564 87.8146 204.316 87.2411 204.316 86.577C204.316 85.8525 204.546 85.2337 205.005 84.7206C205.483 84.2074 206.062 83.9508 206.742 83.9508C207.771 83.9508 208.497 84.464 208.92 85.4903C209.361 84.464 210.096 83.9508 211.125 83.9508C211.787 83.9508 212.347 84.2074 212.807 84.7206C213.285 85.2337 213.524 85.8525 213.524 86.577C213.524 87.2411 213.276 87.8146 212.779 88.2975C212.283 88.7805 212.035 89.2786 212.035 89.7917V95.542C212.035 95.9345 212.145 96.2061 212.366 96.357C212.88 96.7495 213.156 97.3079 213.193 98.0323C213.193 98.2436 213.156 98.4398 213.083 98.621C212.954 99.0737 212.715 99.436 212.366 99.7076C212.145 99.8586 212.035 100.13 212.035 100.523V106.273C212.035 106.786 212.283 107.284 212.779 107.767C213.276 108.25 213.524 108.839 213.524 109.533Z" fill="url(#paint16_linear)"/>
<path d="M231.571 105.141L231.378 108.129C231.213 110.786 230.468 112.114 229.145 112.114C228.318 112.114 227.546 111.601 226.829 110.574C226.131 111.601 224.936 112.114 223.245 112.114C221.573 112.114 220.388 111.601 219.689 110.574C219.248 111.601 218.513 112.114 217.484 112.114C216.804 112.114 216.225 111.857 215.747 111.344C215.288 110.831 215.058 110.227 215.058 109.533C215.058 108.839 215.306 108.25 215.802 107.767C216.298 107.284 216.546 106.786 216.546 106.273V100.523C216.546 100.13 216.445 99.8586 216.243 99.7076C215.71 99.3152 215.425 98.7568 215.389 98.0323C215.407 97.821 215.444 97.6248 215.499 97.4437C215.646 96.9608 215.894 96.5985 216.243 96.357C216.445 96.2061 216.546 95.9345 216.546 95.542V89.7917C216.546 89.2786 216.298 88.7956 215.802 88.3428C215.306 87.8599 215.058 87.2712 215.058 86.577C215.058 85.8525 215.288 85.2337 215.747 84.7206C216.225 84.2074 216.804 83.9508 217.484 83.9508C218.513 83.9508 219.248 84.464 219.689 85.4903C220.112 84.464 220.838 83.9508 221.867 83.9508C222.547 83.9508 223.117 84.2074 223.576 84.7206C224.054 85.2337 224.293 85.8525 224.293 86.577C224.293 87.2712 224.045 87.8599 223.549 88.3428C223.053 88.7956 222.804 89.2786 222.804 89.7917V95.542C222.804 95.9345 222.915 96.2061 223.135 96.357C223.65 96.7495 223.925 97.3079 223.962 98.0323C223.962 98.2436 223.925 98.4398 223.852 98.621C223.723 99.0737 223.484 99.436 223.135 99.7076C222.915 99.8586 222.804 100.13 222.804 100.523V104.19C222.804 105.398 222.979 106.379 223.328 107.133C223.696 107.858 224.174 108.22 224.762 108.22C225.754 108.22 226.664 107.013 227.491 104.598C227.95 103.27 228.226 102.53 228.318 102.379C228.704 101.594 229.2 101.202 229.807 101.202C230.432 101.202 230.909 101.685 231.24 102.651C231.516 103.436 231.626 104.266 231.571 105.141Z" fill="url(#paint17_linear)"/>
<path d="M239.657 106.997C239.657 108.416 239.354 109.624 238.747 110.62C238.141 111.616 237.405 112.114 236.542 112.114C235.696 112.114 234.97 111.616 234.364 110.62C233.757 109.624 233.454 108.416 233.454 106.997C233.454 105.609 233.757 104.417 234.364 103.42C234.97 102.424 235.696 101.926 236.542 101.926C237.405 101.926 238.141 102.424 238.747 103.42C239.354 104.417 239.657 105.609 239.657 106.997Z" fill="url(#paint18_linear)"/>
<path d="M262.286 98.0323C262.267 98.2436 262.231 98.4398 262.176 98.621C262.029 99.0737 261.78 99.436 261.431 99.7076C261.247 99.8284 261.128 100.1 261.073 100.523L261.018 100.975C260.595 104.266 259.658 106.877 258.206 108.809C256.497 111.103 254.19 112.25 251.286 112.25C248.842 112.25 247.05 111.691 245.91 110.574C245.488 111.601 244.762 112.114 243.733 112.114C243.053 112.114 242.474 111.857 241.996 111.344C241.536 110.831 241.307 110.227 241.307 109.533C241.307 108.839 241.555 108.25 242.051 107.767C242.547 107.284 242.795 106.786 242.795 106.273V100.523C242.795 100.13 242.694 99.8586 242.492 99.7076C241.959 99.3152 241.674 98.7568 241.637 98.0323C241.656 97.821 241.693 97.6248 241.748 97.4437C241.895 96.9608 242.143 96.5985 242.492 96.357C242.694 96.2061 242.795 95.9345 242.795 95.542V89.7917C242.795 89.2786 242.547 88.7805 242.051 88.2975C241.555 87.8146 241.307 87.2411 241.307 86.577C241.307 85.8525 241.536 85.2337 241.996 84.7206C242.474 84.2074 243.053 83.9508 243.733 83.9508C244.762 83.9508 245.488 84.464 245.91 85.4903C247.05 83.8603 248.548 83.0453 250.404 83.0453C253.198 83.0453 255.513 83.9508 257.351 85.762C259.483 87.8448 260.733 90.969 261.1 95.1345V95.542C261.119 95.9345 261.229 96.2061 261.431 96.357C261.946 96.7495 262.231 97.3079 262.286 98.0323ZM254.319 100.523C254.337 100.16 254.218 99.8887 253.96 99.7076C253.427 99.3152 253.142 98.7568 253.106 98.0323C253.124 97.821 253.161 97.6248 253.216 97.4437C253.363 96.9608 253.611 96.5985 253.96 96.357C254.199 96.1759 254.3 95.9043 254.264 95.542L254.236 95.1345C254.126 94.1988 253.951 93.1574 253.712 92.0103C253.492 90.8331 253.041 89.6408 252.361 88.4334C251.608 87.075 250.909 86.3959 250.266 86.3959C249.439 86.3959 249.026 87.6787 249.026 90.2445V95.542C249.026 95.9345 249.136 96.2061 249.356 96.357C249.871 96.7495 250.147 97.3079 250.184 98.0323C250.165 98.2436 250.128 98.4398 250.073 98.621C249.945 99.0737 249.706 99.436 249.356 99.7076C249.136 99.8586 249.026 100.13 249.026 100.523V106.228C249.026 107.345 249.09 108.114 249.219 108.537C249.439 109.171 249.899 109.488 250.597 109.488C251.828 109.488 252.775 108.492 253.437 106.499C253.933 105.02 254.227 103.179 254.319 100.975V100.523Z" fill="url(#paint19_linear)"/>
<path d="M283 109.533C283 110.227 282.761 110.831 282.283 111.344C281.824 111.857 281.263 112.114 280.602 112.114C279.572 112.114 278.837 111.601 278.396 110.574C277.973 111.601 277.247 112.114 276.218 112.114C275.538 112.114 274.959 111.857 274.481 111.344C274.022 110.831 273.792 110.227 273.792 109.533C273.792 108.869 274.059 108.295 274.592 107.812C275.125 107.329 275.391 106.967 275.391 106.726C275.391 106.575 275.354 106.424 275.281 106.273L272.91 99.934C272.781 99.6322 272.616 99.6473 272.414 99.9793L271.973 100.613C271.697 101.066 271.559 101.549 271.559 102.062V106.273C271.559 106.816 271.807 107.329 272.304 107.812C272.8 108.265 273.048 108.839 273.048 109.533C273.048 110.227 272.809 110.831 272.331 111.344C271.872 111.857 271.311 112.114 270.65 112.114C269.62 112.114 268.885 111.601 268.444 110.574C268.021 111.601 267.295 112.114 266.266 112.114C265.586 112.114 265.007 111.857 264.529 111.344C264.07 110.831 263.84 110.227 263.84 109.533C263.84 108.839 264.088 108.25 264.585 107.767C265.081 107.284 265.329 106.786 265.329 106.273V100.523C265.329 100.13 265.228 99.8586 265.026 99.7076C264.493 99.3152 264.208 98.7568 264.171 98.0323C264.189 97.821 264.226 97.6248 264.281 97.4437C264.428 96.9608 264.676 96.5985 265.026 96.357C265.228 96.2061 265.329 95.9345 265.329 95.542V89.7917C265.329 89.2786 265.081 88.7805 264.585 88.2975C264.088 87.8146 263.84 87.2411 263.84 86.577C263.84 85.8525 264.07 85.2337 264.529 84.7206C265.007 84.2074 265.586 83.9508 266.266 83.9508C267.295 83.9508 268.021 84.464 268.444 85.4903C268.885 84.464 269.62 83.9508 270.65 83.9508C271.311 83.9508 271.872 84.2074 272.331 84.7206C272.809 85.2337 273.048 85.8525 273.048 86.577C273.048 87.2411 272.8 87.8146 272.304 88.2975C271.807 88.7805 271.559 89.2786 271.559 89.7917V94.4101C271.559 94.6818 271.596 94.8176 271.67 94.8176C271.743 94.8176 271.872 94.6818 272.055 94.4101L276.604 86.9845C277.358 85.7771 278.029 84.9771 278.617 84.5847C279.039 84.2829 279.582 84.132 280.243 84.132C280.776 84.132 281.282 84.4942 281.759 85.2186C282.329 86.0336 282.614 87.075 282.614 88.3428C282.614 91.0897 281.87 92.4631 280.381 92.4631C279.554 92.4631 278.902 91.7689 278.424 90.3803L276.797 93.0065C276.632 93.2781 276.613 93.5951 276.742 93.9573L281.511 106.273C281.603 106.545 281.916 107.013 282.449 107.677C282.816 108.129 283 108.748 283 109.533Z" fill="url(#paint20_linear)"/>
<path d="M40 113.693C40 114.852 39.601 115.859 38.8029 116.715C38.0355 117.572 37.0993 118 35.9942 118C34.2753 118 33.0475 117.144 32.3108 115.431C31.6048 117.144 30.3923 118 28.6734 118C27.5376 118 26.5707 117.572 25.7727 116.715C25.0053 115.859 24.6216 114.852 24.6216 113.693C24.6216 112.585 25.0667 111.628 25.9568 110.822C26.847 110.016 27.2921 109.411 27.2921 109.008C27.2921 108.756 27.2307 108.504 27.1079 108.252L23.1482 97.6736C22.9333 97.1699 22.6571 97.1951 22.3194 97.7492L21.5827 98.8071C21.1223 99.5627 20.8921 100.369 20.8921 101.225V108.252C20.8921 109.159 21.3065 110.016 22.1353 110.822C22.964 111.577 23.3784 112.534 23.3784 113.693C23.3784 114.852 22.9794 115.859 22.1813 116.715C21.4139 117.572 20.4777 118 19.3727 118C17.6537 118 16.4259 117.144 15.6892 115.431C14.9832 117.144 13.7707 118 12.0518 118C10.9161 118 9.94916 117.572 9.15108 116.715C8.38369 115.859 8 114.852 8 113.693C8 112.534 8.41439 111.552 9.24317 110.746C10.0719 109.94 10.4863 109.109 10.4863 108.252V98.6559C10.4863 98.0011 10.3175 97.5477 9.97986 97.2958C9.08969 96.6409 8.61391 95.709 8.55252 94.5C8.58321 94.1474 8.6446 93.8199 8.73669 93.5177C8.98225 92.7117 9.39664 92.1072 9.97986 91.7042C10.3175 91.4523 10.4863 90.9989 10.4863 90.3441V80.7476C10.4863 79.8912 10.0719 79.06 9.24317 78.254C8.41439 77.448 8 76.4909 8 75.3826C8 74.1736 8.38369 73.1409 9.15108 72.2846C9.94916 71.4282 10.9161 71 12.0518 71C13.7707 71 14.9832 71.8564 15.6892 73.5691C16.4259 71.8564 17.6537 71 19.3727 71C20.4777 71 21.4139 71.4282 22.1813 72.2846C22.9794 73.1409 23.3784 74.1736 23.3784 75.3826C23.3784 76.4909 22.964 77.448 22.1353 78.254C21.3065 79.06 20.8921 79.8912 20.8921 80.7476V88.455C20.8921 88.9084 20.9535 89.135 21.0763 89.135C21.199 89.135 21.4139 88.9084 21.7209 88.455L29.318 76.0627C30.5765 74.0477 31.6969 72.7128 32.6791 72.0579C33.3851 71.5541 34.2906 71.3023 35.3957 71.3023C36.2858 71.3023 37.13 71.9068 37.9281 73.1158C38.8796 74.4759 39.3554 76.2138 39.3554 78.3296C39.3554 82.9137 38.1122 85.2058 35.6259 85.2058C34.2446 85.2058 33.1549 84.0472 32.3568 81.7299L29.6403 86.1125C29.364 86.5659 29.3333 87.0949 29.5482 87.6994L37.5137 108.252C37.6671 108.706 38.189 109.487 39.0791 110.595C39.693 111.35 40 112.383 40 113.693Z" fill="url(#paint21_linear)"/>
<defs>
<linearGradient id="paint0_linear" x1="148.75" y1="8.85449" x2="148.75" y2="51.4965" gradientUnits="userSpaceOnUse">
<stop stop-color="#FF0000"/>
<stop offset="1" stop-color="#910000"/>
</linearGradient>
<linearGradient id="paint1_linear" x1="107.5" y1="66" x2="107.5" y2="79.5" gradientUnits="userSpaceOnUse">
<stop stop-color="#6B006D"/>
<stop offset="0.557292" stop-color="#AB00AE"/>
</linearGradient>
<linearGradient id="paint2_linear" x1="119.5" y1="66" x2="119.5" y2="79.5" gradientUnits="userSpaceOnUse">
<stop stop-color="#6B006D"/>
<stop offset="0.557292" stop-color="#AB00AE"/>
</linearGradient>
<linearGradient id="paint3_linear" x1="134.5" y1="66" x2="134.5" y2="79.5" gradientUnits="userSpaceOnUse">
<stop stop-color="#6B006D"/>
<stop offset="0.557292" stop-color="#AB00AE"/>
</linearGradient>
<linearGradient id="paint4_linear" x1="157.5" y1="66" x2="157.5" y2="79.5" gradientUnits="userSpaceOnUse">
<stop stop-color="#6B006D"/>
<stop offset="0.557292" stop-color="#AB00AE"/>
</linearGradient>
<linearGradient id="paint5_linear" x1="173.5" y1="66" x2="173.5" y2="79.5" gradientUnits="userSpaceOnUse">
<stop stop-color="#6B006D"/>
<stop offset="0.557292" stop-color="#AB00AE"/>
</linearGradient>
<linearGradient id="paint6_linear" x1="185.5" y1="66" x2="185.5" y2="79.5" gradientUnits="userSpaceOnUse">
<stop stop-color="#6B006D"/>
<stop offset="0.557292" stop-color="#AB00AE"/>
</linearGradient>
<linearGradient id="paint7_linear" x1="163" y1="83" x2="163" y2="118" gradientUnits="userSpaceOnUse">
<stop stop-color="#6E0070"/>
<stop offset="0.3125" stop-color="#AB00AE"/>
<stop offset="0.671875" stop-color="#FF0000"/>
<stop offset="0.979167" stop-color="#AA0000"/>
</linearGradient>
<linearGradient id="paint8_linear" x1="163" y1="83" x2="163" y2="118" gradientUnits="userSpaceOnUse">
<stop stop-color="#6E0070"/>
<stop offset="0.3125" stop-color="#AB00AE"/>
<stop offset="0.671875" stop-color="#FF0000"/>
<stop offset="0.979167" stop-color="#AA0000"/>
</linearGradient>
<linearGradient id="paint9_linear" x1="163" y1="83" x2="163" y2="118" gradientUnits="userSpaceOnUse">
<stop stop-color="#6E0070"/>
<stop offset="0.3125" stop-color="#AB00AE"/>
<stop offset="0.671875" stop-color="#FF0000"/>
<stop offset="0.979167" stop-color="#AA0000"/>
</linearGradient>
<linearGradient id="paint10_linear" x1="163" y1="83" x2="163" y2="118" gradientUnits="userSpaceOnUse">
<stop stop-color="#6E0070"/>
<stop offset="0.3125" stop-color="#AB00AE"/>
<stop offset="0.671875" stop-color="#FF0000"/>
<stop offset="0.979167" stop-color="#AA0000"/>
</linearGradient>
<linearGradient id="paint11_linear" x1="163" y1="83" x2="163" y2="118" gradientUnits="userSpaceOnUse">
<stop stop-color="#6E0070"/>
<stop offset="0.3125" stop-color="#AB00AE"/>
<stop offset="0.671875" stop-color="#FF0000"/>
<stop offset="0.979167" stop-color="#AA0000"/>
</linearGradient>
<linearGradient id="paint12_linear" x1="163" y1="83" x2="163" y2="118" gradientUnits="userSpaceOnUse">
<stop stop-color="#6E0070"/>
<stop offset="0.3125" stop-color="#AB00AE"/>
<stop offset="0.671875" stop-color="#FF0000"/>
<stop offset="0.979167" stop-color="#AA0000"/>
</linearGradient>
<linearGradient id="paint13_linear" x1="163" y1="83" x2="163" y2="118" gradientUnits="userSpaceOnUse">
<stop stop-color="#6E0070"/>
<stop offset="0.3125" stop-color="#AB00AE"/>
<stop offset="0.671875" stop-color="#FF0000"/>
<stop offset="0.979167" stop-color="#AA0000"/>
</linearGradient>
<linearGradient id="paint14_linear" x1="163" y1="83" x2="163" y2="118" gradientUnits="userSpaceOnUse">
<stop stop-color="#6E0070"/>
<stop offset="0.3125" stop-color="#AB00AE"/>
<stop offset="0.671875" stop-color="#FF0000"/>
<stop offset="0.979167" stop-color="#AA0000"/>
</linearGradient>
<linearGradient id="paint15_linear" x1="163" y1="83" x2="163" y2="118" gradientUnits="userSpaceOnUse">
<stop stop-color="#6E0070"/>
<stop offset="0.3125" stop-color="#AB00AE"/>
<stop offset="0.671875" stop-color="#FF0000"/>
<stop offset="0.979167" stop-color="#AA0000"/>
</linearGradient>
<linearGradient id="paint16_linear" x1="163" y1="83" x2="163" y2="118" gradientUnits="userSpaceOnUse">
<stop stop-color="#6E0070"/>
<stop offset="0.3125" stop-color="#AB00AE"/>
<stop offset="0.671875" stop-color="#FF0000"/>
<stop offset="0.979167" stop-color="#AA0000"/>
</linearGradient>
<linearGradient id="paint17_linear" x1="163" y1="83" x2="163" y2="118" gradientUnits="userSpaceOnUse">
<stop stop-color="#6E0070"/>
<stop offset="0.3125" stop-color="#AB00AE"/>
<stop offset="0.671875" stop-color="#FF0000"/>
<stop offset="0.979167" stop-color="#AA0000"/>
</linearGradient>
<linearGradient id="paint18_linear" x1="163" y1="83" x2="163" y2="118" gradientUnits="userSpaceOnUse">
<stop stop-color="#6E0070"/>
<stop offset="0.3125" stop-color="#AB00AE"/>
<stop offset="0.671875" stop-color="#FF0000"/>
<stop offset="0.979167" stop-color="#AA0000"/>
</linearGradient>
<linearGradient id="paint19_linear" x1="163" y1="83" x2="163" y2="118" gradientUnits="userSpaceOnUse">
<stop stop-color="#6E0070"/>
<stop offset="0.3125" stop-color="#AB00AE"/>
<stop offset="0.671875" stop-color="#FF0000"/>
<stop offset="0.979167" stop-color="#AA0000"/>
</linearGradient>
<linearGradient id="paint20_linear" x1="163" y1="83" x2="163" y2="118" gradientUnits="userSpaceOnUse">
<stop stop-color="#6E0070"/>
<stop offset="0.3125" stop-color="#AB00AE"/>
<stop offset="0.671875" stop-color="#FF0000"/>
<stop offset="0.979167" stop-color="#AA0000"/>
</linearGradient>
<linearGradient id="paint21_linear" x1="24" y1="71" x2="24" y2="118" gradientUnits="userSpaceOnUse">
<stop stop-color="#6E0070"/>
<stop offset="0.3125" stop-color="#AB00AE"/>
<stop offset="0.671875" stop-color="#FF0000"/>
<stop offset="0.979167" stop-color="#AA0000"/>
</linearGradient>
</defs>
</svg>
