<svg id="Layer_1" data-name="Layer 1" xmlns="http://www.w3.org/2000/svg" width="1243.66" height="216.72" viewBox="0 0 1243.66 216.72">
  <defs>
    <style>
      .cls-1 {
        fill: #c1272d;
      }

      .cls-2 {
        font-size: 161.77px;
        fill: #f7931e;
        font-family: PeachyKeenJF;
        letter-spacing: -0.04em;
      }

      .cls-3 {
        letter-spacing: -0.09em;
      }
    </style>
  </defs>
  <title>logo</title>
  <path d="M207,30a29,29,0,0,1-27.86-3.77C149.93,4.47,76.38-34.52,16,64c-55.24,90.13,43.55,190.59,126.17,138.45a29.61,29.61,0,0,1,17.59-4.6c14.57.88,43.28,6.21,73.24-1.85,4.3-1.15,7.63-.85,12,0,8.42,1.65,24.83,4.58,42,1,4.23-.88,10.8-2,15-1,17,4,55.36,13.79,86,5,4.19-1.2,14.71-2.74,19-2,9.29,1.61,27.79,4.41,43-1,5.32-1.89,12.52-1.33,18,0a107.22,107.22,0,0,0,55-2c4.74-1.43,10.19-6.23,15-5.2,17,3.62,56.9,11.05,78.84,6.45a28.84,28.84,0,0,1,14.32.6c10,3,30,6,56.76-5.15a29,29,0,0,1,17.33-1.49c20.27,4.44,69.17,13,100.05.91a29.1,29.1,0,0,1,14.7-1.84c15.44,2.19,50.47,5.9,81.29-.05a28.74,28.74,0,0,1,11.61.17c18.84,4.12,79.89,15.13,142.23.81a29,29,0,0,1,16.35,1.05,79.2,79.2,0,0,0,50.94,1,29.25,29.25,0,0,1,20.65,1.09c14.22,6.19,41.59,13.31,69.91-5.35,29.9-19.69,31.62-42,30.35-52.69a95.71,95.71,0,0,1-.43-16c1-21-2.23-69-52.92-72.34-23.49-1.56-37.44,2.32-45.41,6.39a29.37,29.37,0,0,1-22.78,1.72c-12.28-4.13-32.82-8.14-60.4-3.36a29.08,29.08,0,0,1-12.72-.63c-17.9-4.94-71.18-16.95-124.45-2.56A29.23,29.23,0,0,1,908,49.24c-9.88-3.07-27.29-7.59-43-7.1a29,29,0,0,1-21.69-8.72C826,15.58,783.35-14.8,717.39,26.36a28.82,28.82,0,0,1-29.64.48C670.75,17,641.56,7.1,617,34.06A29.14,29.14,0,0,1,585,41.7c-18-6.85-44.8-13.42-66.76-3.46A29.49,29.49,0,0,1,489.5,36C466.74,20.52,418.74,0,356,40.35a29.29,29.29,0,0,1-30.08,1C303.09,28.74,257.09,10.29,207,30Z"/>
  <path class="cls-1" d="M177,65s9-15-28-35S47,42,37,80s-6,89,32,104,82-12,82-12,28,15,49,7c0,0,26,9,42-2,0,0,30,10,43-2s10-11,10-11-3,18,10,17,46,4,48-9c0,0-2,5,13,6s37,5,38-3c0,0-3,6,9,6s45,9,46-17c0,0,0,20,11,21s53,10,61-21c0,0,16,34,54,16,0,0-3,7,12,5s32,3,33-5c0,0,2,5,12,4s34,6,36-12-2-39,9-39,35,56,77,51,51-27,51-27,15,31,52,19c0,0,2,3,10,3s33,3,33-7c0,0-2,6,5,7s29,1,29,1,9,1,9-8c0,0,0,7,8,8s43,7,43-6c0,0-2,9,15,9s37,4,37-16h0c.1.1,38,37.95,77-1,0,0,11,19,46,16s42-12,45-23c2.11-7.71-1.69-18.85-6.9-25.52a5,5,0,0,1,1.8-7.53c3.75-1.84,7-5.33,6.1-12-2-14-3-52-47-49s-45,21-45,21-42-50-83,5c0,0-14-38-63-15,0,0-21.33-15.51-35.35-2.62a.34.34,0,0,1-.58-.25c0-1.62-.52-4.89-5.07-4.13-5.91,1-33.22,3-34,5.88.12-1,.75-6.88-2-6.88H875s-6,0-5,10c0,0-10-24-43-12,0,0-7-40-51-40s-72,34-82,58-10-33-10-33,4-19-16-18-43-1-43,16,2,17-24,18c0,0-14,0-14,5,0,0-20-8-31,1,0,0,6-13-7-12s-43-4-46,13l-.09.51a4.94,4.94,0,0,1-9.59.55L493,74s0-9-35-6c0,0,3-33-27-35s-41,23-25,46c0,0-18-18-52-8,0,0,2-4-3-4s-59.1-3.93-71.69,5.76a.11.11,0,0,1-.18-.12c.45-1.43,1.5-6.64-7.13-6.64H245s5-11-19-9-25,2-25,13C201,70,195,63,177,65Z"/>
  <text class="cls-2" transform="translate(42.02 171.47) scale(0.95 1)">Carni<tspan class="cls-3" x="419.78" y="0">v</tspan><tspan x="515.38" y="0">al Games</tspan></text>
</svg>
