<svg width="711" height="549" viewBox="0 0 711 549" fill="none" xmlns="http://www.w3.org/2000/svg">
<path d="M0 548.082V0H710.826V548.082H0Z" fill="#3CA9CC"/>
<path d="M109.999 55.9476C90.5279 44.1133 84.5442 41.8751 63.4159 43.7002C56.7515 43.838 46.1578 32.0467 42.4699 47.405C39.6009 59.3532 41.8548 70.3129 44.9786 81.8203C47.4798 91.0342 54.1158 101.704 50.7214 111.551C48.0504 119.299 43.9707 126.376 41.2307 134.086C38.8777 140.707 34.1186 146.71 33.5535 153.866C33.1005 159.602 36.5726 162.154 39.1754 166.664C42.0538 171.652 44.2738 177.01 47.0943 182.066C53.8631 194.197 53.2598 203.616 46.2783 215.654C36.9838 231.681 37.0097 242.643 37.785 260.51C38.5127 277.28 36.9235 294.717 36.7573 311.552C36.6734 320.055 34.3314 328.351 33.7348 336.812C33.0857 346.018 32.4544 355.577 31.1959 364.706C30.0815 372.788 26.993 383.29 33.3722 390.027C38.2426 395.171 45.397 396.999 49.8751 402.795C58.572 414.052 45.5918 441.662 42.0166 453.071C37.8058 466.508 24.8551 485.533 36.8782 497.713C44.5724 505.507 53.5572 479.638 63.4159 479.709C70.7227 479.761 87.2356 481.476 94.2844 483.199C102.173 485.128 105.903 500.684 113.952 501.02C129.736 501.678 145.701 503.293 160.862 498.264C183.524 490.747 205.007 475.26 228.294 488.282C240.73 495.236 253.302 495.762 267.133 496.304C277.634 496.716 287.576 500.113 297.963 500.805C322.42 502.435 343.779 486.349 367.178 482.128C382.557 479.353 398.377 478.119 413.423 483.199C426.958 487.77 436.575 497.015 451.507 498.876C473.702 501.644 496.362 494.388 518.183 491.007C532.754 488.75 548.393 479.719 563.188 481.117C581.925 482.889 597.556 494.204 615.145 499.55C632.224 504.74 685.047 514.303 672.241 479.709C664.613 459.105 660.646 441.629 650.17 432.789C647.624 420.467 651.807 405.688 659.991 400.706C659.351 394.465 667.848 358.802 650.17 332.612C647.019 324.264 665.682 313.976 665.682 304.938C665.682 293.04 673.303 283.332 677.107 272.544C680.813 262.032 682.104 249.298 682.003 238.19C681.885 225.122 677.32 212.26 673.964 199.794C670.84 188.19 668.865 177.707 663.506 166.848C659.035 157.791 653.038 150.621 653.169 140.026C653.319 127.82 663.069 122.423 668.946 113.143C677.733 99.2677 659.224 97.8874 657.098 87.1174C655.21 77.5554 664.058 71.7748 669.974 66.3273C674.379 62.2704 679.616 54.7814 681.429 48.9666C687.588 29.21 657.587 24.796 645.37 20.5831C636.952 17.68 629.052 17.8059 620.525 19.6952C614.314 21.0716 607.466 19.4968 601.151 20.277C585.566 22.2024 558.735 16.5212 546.292 29.1257C538.288 37.234 530.841 46.6291 520.42 52.0897C510.644 57.2122 503.57 56.7094 492.882 55.9496L492.854 55.9476C471.999 54.465 456.079 38.8783 437.301 30.473C415.473 20.7024 388.822 29.8767 369.173 41.2507C359.155 47.05 344.618 49.2505 333.266 47.9868C322.898 46.8327 315.241 40.8745 306.607 35.5556C266.423 10.8007 246.842 59.58 225.235 77.2584C215.159 80.1746 162.379 92.9724 141.427 85.7701C134.488 88.1132 116.556 59.9331 109.999 55.9476Z" fill="#4EBADC"/>
<path d="M101.447 76.1801C82.6236 65.0943 85.9016 55.7699 65.4754 57.4796C59.0323 57.6086 49.9842 49.4027 46.4188 63.7895C43.6451 74.9819 51.3469 84.7033 54.3669 95.4829C56.7851 104.114 63.2005 114.109 59.9189 123.333C57.3367 130.591 53.3926 137.22 50.7435 144.443C48.4688 150.645 43.8678 156.268 43.3215 162.971C42.8835 168.344 46.2402 170.735 48.7565 174.96C51.5393 179.632 53.6856 184.652 56.4124 189.387C62.9563 200.751 62.373 209.574 55.6234 220.851C46.6377 235.864 46.6628 246.132 47.4124 262.87C48.1159 278.578 46.5795 294.912 46.4188 310.682C46.3377 318.647 44.0735 326.419 43.4968 334.344C42.8692 342.969 42.2589 351.923 41.0422 360.474C39.9648 368.045 36.979 377.882 43.1461 384.193C47.8547 389.012 54.7715 390.724 59.1007 396.154C67.5087 406.699 54.9598 432.562 51.5033 443.249C47.4324 455.836 29.4185 474.174 41.0421 485.583C48.4806 492.885 62.6605 468.136 72.1917 468.202C79.2557 468.251 95.22 469.857 102.035 471.472C109.661 473.279 113.267 487.85 121.049 488.165C136.309 488.782 151.743 490.294 166.4 485.583C188.309 478.542 209.078 464.035 231.591 476.233C243.615 482.747 255.769 483.239 269.14 483.748C279.292 484.134 288.904 487.316 298.946 487.964C322.59 489.491 343.239 474.422 365.861 470.468C380.73 467.869 396.024 466.713 410.569 471.472C423.655 475.753 432.953 484.413 447.388 486.157C468.846 488.749 490.753 481.953 511.849 478.786C525.935 476.671 541.055 468.211 555.359 469.522C573.473 471.181 588.585 481.781 605.59 486.788C622.101 491.65 673.169 500.608 660.788 468.202C653.414 448.901 649.578 429.939 639.45 421.659C628.454 415.574 620.357 437.74 609.596 433.398C600.422 429.696 588.944 410.007 587.861 404.931C585.399 393.387 590.489 369.573 598.402 364.906C612.961 356.319 653.946 423.193 649.515 397.433C648.896 391.586 656.541 354.944 639.45 330.41C636.404 322.591 654.447 312.953 654.447 304.487C654.447 293.342 661.815 284.247 665.492 274.141C669.075 264.295 670.323 252.367 670.226 241.961C670.112 229.72 665.698 217.671 662.453 205.994C659.433 195.124 657.525 185.304 652.343 175.132C648.021 166.648 642.223 159.931 642.349 150.007C642.495 138.572 646.661 133.749 652.343 125.056C660.838 112.058 648.204 110.534 646.148 100.445C644.323 91.4878 646.624 84.3259 652.343 79.223C656.602 75.4227 663.74 57.5918 665.492 52.1447C671.447 33.6379 646.621 42.0657 634.81 38.1194C626.672 35.3999 619.034 35.5178 610.791 37.2876C604.786 38.5769 598.165 37.1017 592.06 37.8325C576.993 39.6362 563.553 45.6724 551.524 57.4796C543.786 65.0749 524.086 62.5178 514.011 67.6329C504.56 72.4314 497.721 71.9604 487.388 71.2486L487.362 71.2468C467.199 69.858 451.808 55.2572 433.654 47.3836C412.551 38.2311 386.786 46.8251 367.79 57.4796C358.105 62.912 344.051 64.9733 333.076 63.7895C323.053 62.7084 315.65 57.1271 307.303 52.1447C268.453 28.9558 249.523 74.6494 228.634 91.2095C218.893 93.9413 152.087 110.863 131.831 104.116C125.123 106.311 107.787 79.9134 101.447 76.1801Z" fill="#5DCCEF"/>
<path d="M145.312 245.894C154.975 221.736 123.935 237.135 120.344 239.376C114.467 243.573 115.42 242.858 113.01 248.28C107.611 260.428 88.3947 262.205 83.9102 274.762C80.932 283.1 98.5832 285.309 103 289.137C108.941 294.286 97.9174 306.909 99.6243 314.803C101.364 322.848 151.836 329.292 124.534 338.898C107.621 344.849 101.911 355.09 96.8307 371.781C94.556 379.255 132.082 372.275 136.873 371.374C154.209 368.113 179.838 394.966 195.771 387.612C211.613 380.3 239.192 344.435 256.008 338.898C270.784 334.033 350.358 356.56 354.221 338.898C359.969 312.623 309.253 297.62 294.981 299.846C288.857 300.801 222.642 288.269 219.517 280.232C217.323 274.592 220.942 271.247 211.893 270.862C192.855 270.052 171.679 272.026 152.819 274.994C125.441 279.304 138.696 262.433 145.312 245.894Z" fill="#8EE4FF"/>
<path d="M534.642 104.526C546.561 102.58 549.996 94.7202 557.523 106.184C561.53 112.288 565.437 106.743 567.671 106.184C570.378 105.508 573.336 106.068 576.081 106.068C581.373 106.068 590.807 107.461 587.052 114.973C585.976 117.123 569.277 126.628 574.742 129.057C584.279 133.295 593.991 129.315 603.581 131.56C624.78 136.521 595.683 153.645 589.438 156.528C582.861 159.563 570.304 159.688 565.809 165.607C561.908 170.743 568.376 174.589 572.764 176.112C579.071 178.302 605.471 185.732 601.427 196.395C598.407 204.358 584.758 208.76 577.623 210.828C565.277 214.407 552.093 217.303 539.386 219.006C523.965 221.072 508.074 220.664 492.884 224.331C478.04 227.914 461.602 231.209 446.323 232.013C441.934 232.244 428.506 231.321 431.541 223.953C433.934 218.141 442.625 214.08 448.128 211.992C455.91 209.041 483.664 199.881 461.805 194.416C445.863 190.43 424.614 188.65 408.26 190.371C405.602 190.651 396.304 191.323 395.107 188.247C392.617 181.843 397.822 175.732 402.673 172.416C428.123 155.023 462.279 157.665 490.614 148.525C496.085 146.76 517.328 141.613 517.328 134.091C517.328 130.323 511.571 126.487 510.169 122.83C505.604 110.92 528.036 105.604 534.642 104.526Z" fill="#8EE4FF"/>
<ellipse cx="178.093" cy="137.496" rx="9.8213" ry="3.27377" fill="#ADF7F8"/>
<ellipse cx="291.365" cy="264.518" rx="9.8213" ry="3.27377" fill="#ADF7F8"/>
<ellipse cx="644.932" cy="476.003" rx="9.8213" ry="3.27377" fill="#ADF7F8"/>
<ellipse cx="606.956" cy="459.635" rx="9.8213" ry="3.27377" fill="#ADF7F8"/>
<ellipse cx="178.093" cy="451.777" rx="9.8213" ry="3.27377" fill="#ADF7F8"/>
<ellipse cx="447.197" cy="140.77" rx="9.8213" ry="3.27377" fill="#ADF7F8"/>
<ellipse cx="563.742" cy="195.769" rx="9.8213" ry="3.27377" fill="#ADF7F8"/>
<ellipse cx="424.935" cy="153.21" rx="9.8213" ry="3.27377" fill="#ADF7F8"/>
<ellipse cx="108.689" cy="274.339" rx="9.8213" ry="3.27377" fill="#ADF7F8"/>
<ellipse cx="616.777" cy="303.149" rx="9.8213" ry="3.27377" fill="#ADF7F8"/>
<ellipse cx="329.341" cy="330.648" rx="9.8213" ry="3.27377" fill="#ADF7F8"/>
</svg>
