<svg width="1441" height="202" viewBox="0 0 1441 202" fill="none" xmlns="http://www.w3.org/2000/svg">
<path d="M433.893 106.634C308.516 230.707 163.847 133.3 163.847 133.3C158.594 131.931 64.5546 199.864 0 200.528V125.509V35.6286V1.44995C0.500221 1.00967 1.00006 0.569456 1.5 0.128906H42.6706H136.622H257.129L484.148 0H705.779H948.434H1139.03H1292.14H1430.62C1433.74 3.16148 1436.87 6.32805 1440.01 9.5V129.781V184.17C1397.97 210.89 1344.95 188.013 1250.51 133.3C1179.55 173.376 1127.94 184.406 993.428 106.634C893.446 179.304 830.402 184.311 701.778 106.634C573.128 166.864 511.247 180.399 433.893 106.634Z" fill="white"/>
<path d="M702.082 106.578C589.224 177.086 524.68 201.901 433 106.5C449.054 71.264 461.559 36.2868 476.514 0H707.395C705.759 34.045 703.989 69.4624 702.082 106.578Z" fill="#FF0000"/>
<path d="M1251 133.045C1175.49 188.488 1130.33 209.978 993.389 106.578C977.141 69.8843 962.022 34.5586 947.834 0H1157.26C1186.83 41.6236 1217.02 87.7698 1251 133.045Z" fill="#FF0000"/>
<path d="M0 201.319C37.1171 204.755 78.5916 185.391 163.5 133C194.018 87.0643 234.5 40.8617 261.163 0H134C92.7132 40.673 47.9879 82.4803 0 125.176V201.319Z" fill="#FF0000"/>
<path d="M1421.43 0H1284.78C1334.75 49.6909 1385.57 93.0193 1440 133.045V17.746C1433.77 11.8172 1427.58 5.90259 1421.43 0Z" fill="#FF0000"/>
</svg>
